<?xml version="1.0" encoding="UTF-8" standalone="no"?>
<!DOCTYPE svg PUBLIC "-//W3C//DTD SVG 1.1//EN" "http://www.w3.org/Graphics/SVG/1.1/DTD/svg11.dtd">
<svg width="100%" height="100%" viewBox="0 0 1920 1080" version="1.1" xmlns="http://www.w3.org/2000/svg" xmlns:xlink="http://www.w3.org/1999/xlink" xml:space="preserve" xmlns:serif="http://www.serif.com/" style="fill-rule:evenodd;clip-rule:evenodd;stroke-linejoin:round;stroke-miterlimit:2;">
    <g id="Capa-1" serif:id="Capa 1">
        <g transform="matrix(1,0,0,1,593.619,556.311)">
            <path d="M0,12.138C-128.18,12.138 -232.083,9.423 -232.083,6.045C-232.083,2.691 -128.18,0 0,0L321.938,0L321.938,12.138L0,12.138Z" style="fill:rgb(0,121,53);fill-rule:nonzero;"/>
        </g>
        <g transform="matrix(1,0,0,1,1327.31,568.449)">
            <path d="M0,-12.162C128.331,-12.162 232.362,-9.423 232.362,-6.093C232.362,-2.715 128.331,0 0,0L-322.301,0L-322.301,-12.162L0,-12.162Z" style="fill:rgb(208,4,60);fill-rule:nonzero;"/>
        </g>
        <g transform="matrix(1,0,0,1,753.132,307.023)">
            <path d="M0,187.05C-4.089,185.256 -4.845,183.987 -4.845,178.362C-4.845,164.313 -3.831,148.971 -3.576,144.882C-3.321,141.051 -2.562,138.243 -0.501,138.243C1.794,138.243 2.049,140.538 2.049,142.587C2.049,145.908 3.063,151.278 4.344,155.61C9.972,174.528 25.044,181.437 40.887,181.437C63.891,181.437 75.132,165.849 75.132,152.292C75.132,139.782 71.313,128.028 50.088,111.405L38.334,102.216C10.227,80.235 0.501,62.343 0.501,41.643C0.501,13.536 24.03,-6.651 59.547,-6.651C76.158,-6.651 86.886,-4.089 93.537,-2.307C95.832,-1.806 97.113,-1.026 97.113,0.757C97.113,4.089 96.087,11.485 96.087,31.416C96.087,37.041 95.319,39.093 93.27,39.093C91.488,39.093 90.717,37.566 90.717,34.479C90.717,32.184 89.448,24.276 84.078,17.625C80.247,12.778 72.837,5.091 56.226,5.091C37.311,5.091 25.8,16.086 25.8,31.416C25.8,43.18 31.695,52.126 52.896,68.226L60.06,73.594C90.987,96.846 101.958,114.48 101.958,138.756C101.958,153.573 96.345,171.207 77.952,183.231C65.16,191.406 50.856,193.701 37.311,193.701C22.482,193.701 10.983,191.907 0,187.05" style="fill:rgb(99,101,106);fill-rule:nonzero;"/>
        </g>
        <g transform="matrix(1,0,0,1,919.751,328.225)">
            <path d="M0,144.648C-25.044,122.667 -31.685,94.047 -31.685,69.261C-31.685,51.87 -26.325,21.711 -1.794,-0.759C16.611,-17.637 40.884,-27.852 78.963,-27.852C94.806,-27.852 104.265,-26.838 116.019,-25.29C125.733,-24.021 133.911,-21.726 141.585,-20.958C144.393,-20.7 145.407,-19.431 145.407,-17.892C145.407,-15.843 144.648,-12.78 144.138,-3.834C143.613,4.599 143.868,18.648 143.367,23.772C143.112,27.606 142.599,29.643 140.292,29.643C138.255,29.643 137.754,27.606 137.754,24.018C137.487,16.098 134.166,7.152 127.782,0.51C119.337,-8.424 99.408,-15.33 75.888,-15.33C53.664,-15.33 39.102,-9.717 27.852,0.51C9.213,17.634 4.344,41.898 4.344,66.699C4.344,127.515 50.601,157.671 84.846,157.671C107.583,157.671 121.398,155.121 131.616,143.367C135.96,138.51 139.281,131.091 140.292,126.501C141.072,122.4 141.585,121.386 143.613,121.386C145.407,121.386 145.932,123.168 145.932,125.22C145.932,128.295 142.857,150.519 140.292,159.21C139.023,163.566 137.997,164.835 133.653,166.617C123.438,170.706 104.007,172.5 87.654,172.5C52.638,172.5 23.262,164.835 0,144.648" style="fill:rgb(99,101,106);fill-rule:nonzero;"/>
        </g>
        <g transform="matrix(1,0,0,1,1153.08,479.257)">
            <path d="M0,-161.004L-38.067,-159.969C-52.896,-159.456 -59.022,-158.184 -62.853,-152.571C-65.418,-148.728 -66.699,-145.674 -67.2,-143.613C-67.71,-141.576 -68.481,-140.55 -70.017,-140.55C-71.811,-140.55 -72.312,-141.843 -72.312,-144.639C-72.312,-148.728 -67.455,-171.99 -66.954,-174.039C-66.186,-177.36 -65.418,-178.884 -63.879,-178.884C-61.842,-178.884 -59.277,-176.322 -52.896,-175.821C-45.486,-175.053 -35.76,-174.54 -27.339,-174.54L73.863,-174.54C82.041,-174.54 87.666,-175.32 91.499,-175.821C95.331,-176.589 97.37,-177.09 98.394,-177.09C100.178,-177.09 100.433,-175.566 100.433,-171.732C100.433,-166.362 99.677,-148.728 99.677,-142.086C99.42,-139.536 98.895,-137.988 97.37,-137.988C95.331,-137.988 94.818,-139.281 94.563,-143.112L94.307,-145.932C93.782,-152.571 86.886,-159.723 64.149,-160.236L31.953,-161.004L31.953,-56.226C31.953,-32.709 31.953,-12.522 33.234,-1.537C33.99,5.627 35.529,11.241 43.193,12.266C46.781,12.779 52.395,13.29 56.228,13.29C59.034,13.29 60.317,14.06 60.317,15.33C60.317,17.124 58.278,17.88 55.448,17.88C38.604,17.88 22.494,17.124 15.342,17.124C9.459,17.124 -6.639,17.88 -16.854,17.88C-20.187,17.88 -21.981,17.124 -21.981,15.33C-21.981,14.06 -20.943,13.29 -17.88,13.29C-14.058,13.29 -10.971,12.779 -8.677,12.266C-3.564,11.241 -2.037,5.627 -1.269,-1.794C0,-12.522 0,-32.709 0,-56.226L0,-161.004Z" style="fill:rgb(99,101,106);fill-rule:nonzero;"/>
        </g>
        <g transform="matrix(1,0,0,1,413.499,644.523)">
            <path d="M0,41.703C-0.792,41.319 -0.852,41.097 -0.852,39.537C-0.852,36.681 -0.618,34.389 -0.57,33.492C-0.513,32.85 -0.396,32.571 -0.105,32.571C0.231,32.571 0.279,32.733 0.279,33.201C0.279,33.711 0.279,34.515 0.453,35.307C1.317,39.537 5.091,41.154 8.922,41.154C14.421,41.154 17.088,37.206 17.088,33.537C17.088,29.601 15.435,27.318 10.53,23.253L7.956,21.144C1.887,16.17 0.525,12.618 0.525,8.739C0.525,2.622 5.091,-1.548 12.348,-1.548C14.571,-1.548 16.236,-1.326 17.67,-0.978C18.753,-0.744 19.209,-0.696 19.662,-0.696C20.115,-0.696 20.232,-0.582 20.232,-0.3C20.232,-0.009 20.01,1.878 20.01,5.766C20.01,6.675 19.896,7.071 19.614,7.071C19.266,7.071 19.209,6.792 19.161,6.351C19.104,5.652 18.753,4.113 18.405,3.474C18.066,2.856 16.518,0.444 11.262,0.444C7.314,0.444 4.227,2.913 4.227,7.071C4.227,10.335 5.718,12.396 11.205,16.683L12.801,17.94C19.557,23.253 21.153,26.793 21.153,31.371C21.153,33.711 20.232,38.058 16.296,40.854C13.839,42.564 10.752,43.251 7.653,43.251C4.986,43.251 2.352,42.867 0,41.703" style="fill:rgb(99,101,106);fill-rule:nonzero;"/>
        </g>
        <g transform="matrix(1,0,0,1,451.101,670.13)">
            <path d="M0,-9.788C0,-18.71 0,-20.306 -0.117,-22.133C-0.234,-24.068 -0.689,-24.989 -2.565,-25.385C-3.03,-25.502 -3.996,-25.559 -4.521,-25.559C-4.743,-25.559 -4.974,-25.664 -4.974,-25.907C-4.974,-26.246 -4.683,-26.351 -4.056,-26.351C-2.751,-26.351 -1.212,-26.351 0.057,-26.303L2.398,-26.189C2.794,-26.189 14.175,-26.189 15.492,-26.246C16.563,-26.303 17.484,-26.408 17.949,-26.525C18.216,-26.585 18.462,-26.816 18.741,-26.816C18.915,-26.816 18.975,-26.585 18.975,-26.303C18.975,-25.907 18.684,-25.22 18.519,-23.615C18.462,-23.042 18.345,-20.528 18.216,-19.841C18.171,-19.559 18.066,-19.211 17.832,-19.211C17.484,-19.211 17.367,-19.502 17.367,-19.955C17.367,-20.363 17.307,-21.332 17.028,-22.019C16.62,-22.925 16.062,-23.615 12.975,-23.951C12.009,-24.068 5.766,-24.125 5.148,-24.125C4.914,-24.125 4.797,-23.951 4.797,-23.555L4.797,-7.784C4.797,-7.388 4.857,-7.214 5.148,-7.214C5.88,-7.214 12.918,-7.214 14.232,-7.328C15.597,-7.445 16.401,-7.562 16.911,-8.12C17.307,-8.576 17.541,-8.879 17.775,-8.879C17.949,-8.879 18.066,-8.75 18.066,-8.412C18.066,-8.063 17.775,-7.097 17.61,-5.21C17.484,-4.079 17.367,-1.958 17.367,-1.553C17.367,-1.097 17.367,-0.467 16.971,-0.467C16.68,-0.467 16.563,-0.701 16.563,-0.98C16.563,-1.553 16.563,-2.123 16.341,-2.855C16.119,-3.671 15.597,-4.628 13.371,-4.871C11.823,-5.034 6.162,-5.15 5.205,-5.15C4.914,-5.15 4.797,-4.988 4.797,-4.742L4.797,0.277C4.797,2.223 4.752,8.839 4.797,10.051C4.972,13.987 5.823,14.745 11.427,14.745C12.918,14.745 15.432,14.745 16.911,14.104C18.402,13.474 19.08,12.334 19.486,10.003C19.602,9.364 19.719,9.142 19.998,9.142C20.337,9.142 20.337,9.595 20.337,10.003C20.337,10.447 19.882,14.338 19.602,15.547C19.206,17.028 18.741,17.028 16.504,17.028C12.229,17.028 9.084,16.912 6.859,16.852C4.623,16.737 3.261,16.678 2.398,16.678C2.283,16.678 1.314,16.678 0.103,16.737C-1.038,16.737 -2.343,16.852 -3.204,16.852C-3.822,16.852 -4.113,16.737 -4.113,16.399C-4.113,16.225 -3.996,16.048 -3.671,16.048C-3.147,16.048 -2.46,15.933 -1.959,15.817C-0.794,15.607 -0.513,14.338 -0.293,12.67C0,10.272 0,5.764 0,0.277L0,-9.788Z" style="fill:rgb(99,101,106);fill-rule:nonzero;"/>
        </g>
        <g transform="matrix(1,0,0,1,487.71,649.137)">
            <path d="M0,32.475C-5.556,27.501 -6.918,20.979 -6.918,15.552C-6.918,11.718 -5.601,5.043 -0.525,-0.045C2.913,-3.471 8.121,-6.162 16.914,-6.162C19.197,-6.162 22.401,-5.988 25.197,-5.475C27.375,-5.091 29.202,-4.728 31.02,-4.623C31.662,-4.566 31.778,-4.332 31.778,-3.996C31.778,-3.528 31.602,-2.853 31.485,-0.804C31.38,1.095 31.38,4.239 31.311,5.103C31.254,5.952 31.137,6.291 30.798,6.291C30.402,6.291 30.345,5.895 30.345,5.103C30.345,2.865 29.424,0.513 27.945,-0.744C25.941,-2.457 21.54,-3.996 16.506,-3.996C8.913,-3.996 5.358,-1.758 3.366,0.186C-0.804,4.182 -1.782,9.273 -1.782,15.096C-1.782,26.01 6.63,36.018 18.858,36.018C23.145,36.018 26.511,35.493 28.796,33.162C30.006,31.893 30.741,29.388 30.915,28.365C31.02,27.723 31.137,27.501 31.485,27.501C31.778,27.501 31.881,27.897 31.881,28.365C31.881,28.761 31.194,33.723 30.624,35.679C30.288,36.762 30.171,36.867 29.145,37.332C26.862,38.253 22.518,38.637 18.858,38.637C10.287,38.637 4.509,36.54 0,32.475" style="fill:rgb(99,101,106);fill-rule:nonzero;"/>
        </g>
        <g transform="matrix(1,0,0,1,539.208,665.445)">
            <path d="M0,-0.129C0,0.162 0.117,0.384 0.408,0.549C1.257,1.071 3.891,1.467 6.396,1.467C7.782,1.467 9.378,1.305 10.695,0.384C12.684,-0.99 14.175,-4.065 14.175,-8.421C14.175,-15.561 10.401,-19.836 4.299,-19.836C2.574,-19.836 1.026,-19.674 0.465,-19.5C0.174,-19.383 0,-19.161 0,-18.825L0,-0.129ZM-4.578,-5.103C-4.578,-14.025 -4.578,-15.621 -4.683,-17.448C-4.8,-19.383 -5.253,-20.304 -7.152,-20.7C-7.593,-20.817 -8.562,-20.874 -9.084,-20.874C-9.318,-20.874 -9.54,-20.979 -9.54,-21.222C-9.54,-21.561 -9.261,-21.666 -8.619,-21.666C-6.057,-21.666 -2.457,-21.504 -2.166,-21.504C-1.548,-21.504 2.796,-21.666 4.566,-21.666C8.178,-21.666 11.997,-21.339 15.039,-19.161C16.47,-18.126 18.987,-15.33 18.987,-11.379C18.987,-7.152 17.217,-2.925 12.057,1.83C16.752,7.815 20.64,12.918 23.949,16.448C27.036,19.71 29.493,20.337 30.927,20.559C31.998,20.733 32.802,20.733 33.153,20.733C33.444,20.733 33.663,20.91 33.663,21.084C33.663,21.422 33.327,21.537 32.289,21.537L28.236,21.537C25.032,21.537 23.613,21.246 22.122,20.454C19.662,19.128 17.658,16.344 14.397,12.057C11.997,8.91 9.318,5.079 8.178,3.588C7.944,3.366 7.782,3.249 7.431,3.249L0.408,3.132C0.117,3.132 0,3.309 0,3.588L0,4.962C0,10.449 0,14.957 0.291,17.355C0.465,19.023 0.792,20.292 2.517,20.502C3.309,20.619 4.566,20.733 5.091,20.733C5.43,20.733 5.544,20.91 5.544,21.084C5.544,21.363 5.265,21.537 4.626,21.537C1.479,21.537 -2.109,21.363 -2.412,21.363C-2.457,21.363 -6.057,21.537 -7.77,21.537C-8.397,21.537 -8.679,21.422 -8.679,21.084C-8.679,20.91 -8.562,20.733 -8.235,20.733C-7.71,20.733 -7.023,20.619 -6.522,20.502C-5.37,20.292 -5.079,19.023 -4.857,17.355C-4.578,14.957 -4.578,10.449 -4.578,4.962L-4.578,-5.103Z" style="fill:rgb(99,101,106);fill-rule:nonzero;"/>
        </g>
        <g transform="matrix(1,0,0,1,579.057,670.13)">
            <path d="M0,-9.788C0,-18.71 0,-20.306 -0.105,-22.133C-0.21,-24.068 -0.663,-24.989 -2.562,-25.385C-3.015,-25.502 -3.996,-25.559 -4.497,-25.559C-4.728,-25.559 -4.962,-25.664 -4.962,-25.907C-4.962,-26.246 -4.671,-26.351 -4.041,-26.351C-2.736,-26.351 -1.188,-26.351 0.06,-26.303L2.412,-26.189C2.82,-26.189 14.187,-26.189 15.504,-26.246C16.587,-26.303 17.496,-26.408 17.964,-26.525C18.243,-26.585 18.462,-26.816 18.765,-26.816C18.93,-26.816 18.987,-26.585 18.987,-26.303C18.987,-25.907 18.708,-25.22 18.522,-23.615C18.462,-23.042 18.348,-20.528 18.243,-19.841C18.195,-19.559 18.078,-19.211 17.847,-19.211C17.496,-19.211 17.391,-19.502 17.391,-19.955C17.391,-20.363 17.334,-21.332 17.043,-22.019C16.635,-22.925 16.074,-23.615 12.99,-23.951C12.009,-24.068 5.79,-24.125 5.16,-24.125C4.929,-24.125 4.812,-23.951 4.812,-23.555L4.812,-7.784C4.812,-7.388 4.869,-7.214 5.16,-7.214C5.895,-7.214 12.918,-7.214 14.247,-7.328C15.621,-7.445 16.413,-7.562 16.926,-8.12C17.334,-8.576 17.556,-8.879 17.787,-8.879C17.964,-8.879 18.078,-8.75 18.078,-8.412C18.078,-8.063 17.787,-7.097 17.613,-5.21C17.496,-4.079 17.391,-1.958 17.391,-1.553C17.391,-1.097 17.391,-0.467 16.983,-0.467C16.692,-0.467 16.587,-0.701 16.587,-0.98C16.587,-1.553 16.587,-2.123 16.356,-2.855C16.134,-3.671 15.621,-4.628 13.386,-4.871C11.847,-5.034 6.186,-5.15 5.22,-5.15C4.929,-5.15 4.812,-4.988 4.812,-4.742L4.812,0.277C4.812,2.223 4.752,8.839 4.812,10.051C4.986,13.987 5.847,14.745 11.451,14.745C12.918,14.745 15.435,14.745 16.926,14.104C18.405,13.474 19.104,12.334 19.5,10.003C19.629,9.364 19.734,9.142 20.013,9.142C20.361,9.142 20.361,9.595 20.361,10.003C20.361,10.447 19.908,14.338 19.629,15.547C19.209,17.028 18.765,17.028 16.53,17.028C12.243,17.028 9.099,16.912 6.873,16.852C4.638,16.737 3.273,16.678 2.412,16.678C2.295,16.678 1.329,16.678 0.129,16.737C-1.014,16.737 -2.328,16.852 -3.192,16.852C-3.807,16.852 -4.101,16.737 -4.101,16.399C-4.101,16.225 -3.996,16.048 -3.645,16.048C-3.144,16.048 -2.445,15.933 -1.932,15.817C-0.792,15.607 -0.501,14.338 -0.267,12.67C0,10.272 0,5.764 0,0.277L0,-9.788Z" style="fill:rgb(99,101,106);fill-rule:nonzero;"/>
        </g>
        <g transform="matrix(1,0,0,1,627.468,659.55)">
            <path d="M0,10.857C0,16.344 0,20.853 0.279,23.25C0.456,24.918 0.792,26.187 2.505,26.397C3.309,26.514 4.554,26.628 5.079,26.628C5.418,26.628 5.544,26.805 5.544,26.979C5.544,27.258 5.241,27.432 4.614,27.432C1.479,27.432 -2.13,27.258 -2.412,27.258C-2.703,27.258 -6.3,27.432 -8.013,27.432C-8.631,27.432 -8.922,27.318 -8.922,26.979C-8.922,26.805 -8.805,26.628 -8.481,26.628C-7.956,26.628 -7.269,26.514 -6.768,26.397C-5.601,26.187 -5.322,24.918 -5.1,23.25C-4.809,20.853 -4.809,16.344 -4.809,10.857L-4.809,-13.326L-13.278,-13.209C-16.809,-13.149 -18.183,-12.741 -19.104,-11.379C-19.731,-10.401 -19.896,-10.005 -20.07,-9.609C-20.232,-9.144 -20.418,-9.039 -20.64,-9.039C-20.814,-9.039 -20.931,-9.201 -20.931,-9.54C-20.931,-10.122 -19.779,-15.036 -19.674,-15.504C-19.557,-15.828 -19.323,-16.575 -19.104,-16.575C-18.696,-16.575 -18.123,-16.005 -16.587,-15.888C-14.934,-15.723 -12.753,-15.609 -12.066,-15.609L9.366,-15.609C11.205,-15.609 12.498,-15.723 13.407,-15.888C14.271,-16.005 14.793,-16.179 15.027,-16.179C15.306,-16.179 15.306,-15.828 15.306,-15.504C15.306,-13.779 15.132,-9.843 15.132,-9.201C15.132,-8.676 14.97,-8.457 14.736,-8.457C14.457,-8.457 14.34,-8.631 14.271,-9.435L14.223,-10.062C14.049,-11.775 12.675,-13.092 7.2,-13.209L0,-13.326L0,10.857Z" style="fill:rgb(99,101,106);fill-rule:nonzero;"/>
        </g>
        <g transform="matrix(1,0,0,1,667.725,661.89)">
            <path d="M0,6.177C0.279,6.177 0.279,6 0.222,5.769L-5.196,-9.666C-5.487,-10.527 -5.778,-10.527 -6.057,-9.666L-11.088,5.769C-11.205,6.06 -11.088,6.177 -10.914,6.177L0,6.177ZM-5.94,-16.689C-5.253,-18.576 -5.031,-18.915 -4.695,-18.915C-4.344,-18.915 -4.11,-18.636 -3.423,-16.865C-2.574,-14.685 6.396,8.913 9.879,17.604C11.94,22.683 13.593,23.601 14.805,23.952C15.669,24.231 16.53,24.288 17.076,24.288C17.427,24.288 17.661,24.336 17.661,24.639C17.661,24.978 17.136,25.092 16.53,25.092C15.669,25.092 11.475,25.092 7.536,24.978C6.453,24.918 5.814,24.918 5.814,24.579C5.814,24.336 6,24.231 6.231,24.174C6.57,24.057 6.921,23.544 6.57,22.623L1.26,8.577C1.143,8.355 1.026,8.226 0.735,8.226L-11.544,8.226C-11.823,8.226 -12.009,8.4 -12.126,8.691L-15.549,18.804C-16.074,20.235 -16.341,21.609 -16.341,22.623C-16.341,23.787 -15.153,24.288 -14.175,24.288L-13.605,24.288C-13.197,24.288 -13.035,24.405 -13.035,24.639C-13.035,24.978 -13.371,25.092 -13.896,25.092C-15.27,25.092 -17.727,24.918 -18.345,24.918C-18.975,24.918 -22.119,25.092 -24.81,25.092C-25.557,25.092 -25.893,24.978 -25.893,24.639C-25.893,24.405 -25.662,24.288 -25.371,24.288C-24.984,24.288 -24.183,24.231 -23.715,24.174C-21.096,23.847 -19.953,21.669 -18.918,18.804L-5.94,-16.689Z" style="fill:rgb(99,101,106);fill-rule:nonzero;"/>
        </g>
        <g transform="matrix(1,0,0,1,699.468,665.445)">
            <path d="M0,-0.129C0,0.162 0.117,0.384 0.408,0.549C1.257,1.071 3.891,1.467 6.396,1.467C7.782,1.467 9.378,1.305 10.68,0.384C12.696,-0.99 14.175,-4.065 14.175,-8.421C14.175,-15.561 10.401,-19.836 4.287,-19.836C2.574,-19.836 1.026,-19.674 0.465,-19.5C0.174,-19.383 0,-19.161 0,-18.825L0,-0.129ZM-4.578,-5.103C-4.578,-14.025 -4.578,-15.621 -4.683,-17.448C-4.8,-19.383 -5.253,-20.304 -7.14,-20.7C-7.596,-20.817 -8.574,-20.874 -9.087,-20.874C-9.309,-20.874 -9.552,-20.979 -9.552,-21.222C-9.552,-21.561 -9.249,-21.666 -8.631,-21.666C-6.057,-21.666 -2.457,-21.504 -2.178,-21.504C-1.539,-21.504 2.808,-21.666 4.566,-21.666C8.166,-21.666 11.997,-21.339 15.039,-19.161C16.458,-18.126 18.987,-15.33 18.987,-11.379C18.987,-7.152 17.205,-2.925 12.057,1.83C16.749,7.815 20.64,12.918 23.949,16.448C27.036,19.71 29.505,20.337 30.915,20.559C32.01,20.733 32.814,20.733 33.15,20.733C33.432,20.733 33.675,20.91 33.675,21.084C33.675,21.422 33.327,21.537 32.289,21.537L28.236,21.537C25.032,21.537 23.598,21.246 22.119,20.454C19.662,19.128 17.658,16.344 14.409,12.057C11.997,8.91 9.318,5.079 8.166,3.588C7.956,3.366 7.782,3.249 7.431,3.249L0.408,3.132C0.117,3.132 0,3.309 0,3.588L0,4.962C0,10.449 0,14.957 0.279,17.355C0.465,19.023 0.792,20.292 2.517,20.502C3.309,20.619 4.566,20.733 5.079,20.733C5.427,20.733 5.544,20.91 5.544,21.084C5.544,21.363 5.265,21.537 4.623,21.537C1.491,21.537 -2.121,21.363 -2.4,21.363C-2.457,21.363 -6.057,21.537 -7.782,21.537C-8.388,21.537 -8.691,21.422 -8.691,21.084C-8.691,20.91 -8.574,20.733 -8.235,20.733C-7.713,20.733 -7.035,20.619 -6.525,20.502C-5.37,20.292 -5.079,19.023 -4.857,17.355C-4.578,14.957 -4.578,10.449 -4.578,4.962L-4.578,-5.103Z" style="fill:rgb(99,101,106);fill-rule:nonzero;"/>
        </g>
        <g transform="matrix(1,0,0,1,750.465,683.943)">
            <path d="M0,-47.946C0.279,-47.433 0,-47.259 -0.234,-47.259C-0.396,-47.259 -0.966,-47.373 -1.947,-47.259C-4.743,-46.977 -8.748,-45.651 -10.635,-44.859C-11.043,-44.685 -11.37,-44.58 -11.487,-44.58C-11.592,-44.58 -11.778,-44.685 -11.778,-44.916C-11.778,-45.081 -11.649,-45.195 -11.37,-45.384C-9.318,-46.791 -3.996,-49.995 -3.6,-50.229C-2.622,-50.799 -2.283,-50.985 -2.004,-50.985C-1.83,-50.985 -1.713,-50.856 -1.434,-50.46C-1.026,-49.878 -0.63,-49.086 0,-47.946M-6.348,-13.536C-6.348,-8.049 -6.348,-3.541 -6.045,-1.143C-5.883,0.525 -5.544,1.794 -3.846,2.004C-3.03,2.12 -1.77,2.235 -1.26,2.235C-0.909,2.235 -0.804,2.412 -0.804,2.586C-0.804,2.865 -1.083,3.039 -1.713,3.039C-4.857,3.039 -8.457,2.865 -8.748,2.865C-9.027,2.865 -12.639,3.039 -14.352,3.039C-14.979,3.039 -15.261,2.924 -15.261,2.586C-15.261,2.412 -15.144,2.235 -14.805,2.235C-14.292,2.235 -13.605,2.12 -13.083,2.004C-11.952,1.794 -11.649,0.525 -11.427,-1.143C-11.16,-3.541 -11.16,-8.049 -11.16,-13.536L-11.16,-23.601C-11.16,-32.523 -11.16,-34.119 -11.265,-35.946C-11.37,-37.881 -11.952,-38.859 -13.197,-39.138C-13.827,-39.315 -14.583,-39.372 -14.979,-39.372C-15.201,-39.372 -15.435,-39.477 -15.435,-39.72C-15.435,-40.059 -15.144,-40.164 -14.526,-40.164C-12.639,-40.164 -9.027,-40.002 -8.748,-40.002C-8.457,-40.002 -4.857,-40.164 -3.147,-40.164C-2.517,-40.164 -2.226,-40.059 -2.226,-39.72C-2.226,-39.477 -2.457,-39.372 -2.679,-39.372C-3.087,-39.372 -3.426,-39.315 -4.113,-39.198C-5.661,-38.919 -6.117,-37.938 -6.234,-35.946C-6.348,-34.119 -6.348,-32.523 -6.348,-23.601L-6.348,-13.536Z" style="fill:rgb(99,101,106);fill-rule:nonzero;"/>
        </g>
        <g transform="matrix(1,0,0,1,780.015,661.89)">
            <path d="M0,6.177C0.281,6.177 0.281,6 0.222,5.769L-5.205,-9.666C-5.484,-10.527 -5.776,-10.527 -6.067,-9.666L-11.088,5.769C-11.205,6.06 -11.088,6.177 -10.926,6.177L0,6.177ZM-5.952,-16.689C-5.265,-18.576 -5.031,-18.915 -4.692,-18.915C-4.356,-18.915 -4.122,-18.636 -3.423,-16.865C-2.574,-14.685 6.396,8.913 9.879,17.604C11.94,22.683 13.596,23.601 14.795,23.952C15.645,24.231 16.506,24.288 17.078,24.288C17.415,24.288 17.661,24.336 17.661,24.639C17.661,24.978 17.136,25.092 16.506,25.092C15.645,25.092 11.475,25.092 7.539,24.978C6.455,24.918 5.814,24.918 5.814,24.579C5.814,24.336 5.988,24.231 6.222,24.174C6.57,24.057 6.909,23.544 6.57,22.623L1.248,8.577C1.131,8.355 1.014,8.226 0.735,8.226L-11.542,8.226C-11.844,8.226 -12.009,8.4 -12.126,8.691L-15.549,18.804C-16.074,20.235 -16.353,21.609 -16.353,22.623C-16.353,23.787 -15.153,24.288 -14.187,24.288L-13.617,24.288C-13.209,24.288 -13.032,24.405 -13.032,24.639C-13.032,24.978 -13.383,25.092 -13.896,25.092C-15.27,25.092 -17.727,24.918 -18.345,24.918C-18.985,24.918 -22.131,25.092 -24.81,25.092C-25.555,25.092 -25.893,24.978 -25.893,24.639C-25.893,24.405 -25.659,24.288 -25.38,24.288C-24.984,24.288 -24.18,24.231 -23.727,24.174C-21.093,23.847 -19.953,21.669 -18.927,18.804L-5.952,-16.689Z" style="fill:rgb(99,101,106);fill-rule:nonzero;"/>
        </g>
        <g transform="matrix(1,0,0,1,831.945,664.233)">
            <path d="M0,2.283C0,8.34 0.057,13.605 0.117,14.679C0.174,16.122 0.279,18.405 0.735,19.035C1.479,20.118 3.717,21.318 10.461,21.318C15.762,21.318 20.688,19.371 24.054,16.005C27.024,13.083 28.632,7.608 28.632,2.343C28.632,-4.914 25.488,-9.597 23.133,-12.057C17.775,-17.718 11.265,-18.519 4.449,-18.519C3.309,-18.519 1.188,-18.357 0.735,-18.114C0.234,-17.892 0.057,-17.613 0.057,-16.971C0,-15.039 0,-9.201 0,-4.8L0,2.283ZM-4.812,-3.891C-4.812,-12.813 -4.812,-14.409 -4.914,-16.236C-5.031,-18.171 -5.487,-19.092 -7.386,-19.488C-7.839,-19.605 -8.793,-19.662 -9.318,-19.662C-9.552,-19.662 -9.774,-19.767 -9.774,-20.01C-9.774,-20.349 -9.492,-20.454 -8.853,-20.454C-6.291,-20.454 -2.703,-20.292 -2.4,-20.292C-1.725,-20.292 1.887,-20.454 5.313,-20.454C10.974,-20.454 21.423,-20.979 28.224,-13.944C31.089,-10.971 33.78,-6.231 33.78,0.57C33.78,7.77 30.798,13.326 27.606,16.692C25.149,19.266 20.001,23.262 10.275,23.262C7.827,23.262 4.8,23.1 2.343,22.926C-0.174,22.749 -2.121,22.575 -2.4,22.575C-2.517,22.575 -3.495,22.575 -4.695,22.635C-5.835,22.635 -7.14,22.749 -8.001,22.749C-8.631,22.749 -8.922,22.635 -8.922,22.296C-8.922,22.122 -8.793,21.945 -8.469,21.945C-7.944,21.945 -7.257,21.831 -6.756,21.714C-5.604,21.504 -5.322,20.235 -5.091,18.567C-4.812,16.17 -4.812,11.661 -4.812,6.174L-4.812,-3.891Z" style="fill:rgb(99,101,106);fill-rule:nonzero;"/>
        </g>
        <g transform="matrix(1,0,0,1,880.298,670.13)">
            <path d="M0,-9.788C0,-18.71 0,-20.306 -0.129,-22.133C-0.234,-24.068 -0.687,-24.989 -2.574,-25.385C-3.03,-25.502 -3.996,-25.559 -4.521,-25.559C-4.743,-25.559 -4.986,-25.664 -4.986,-25.907C-4.986,-26.246 -4.683,-26.351 -4.065,-26.351C-2.751,-26.351 -1.212,-26.351 0.057,-26.303L2.398,-26.189C2.796,-26.189 14.175,-26.189 15.492,-26.246C16.563,-26.303 17.484,-26.408 17.949,-26.525C18.216,-26.585 18.45,-26.816 18.741,-26.816C18.915,-26.816 18.975,-26.585 18.975,-26.303C18.975,-25.907 18.684,-25.22 18.519,-23.615C18.45,-23.042 18.333,-20.528 18.216,-19.841C18.159,-19.559 18.066,-19.211 17.832,-19.211C17.484,-19.211 17.367,-19.502 17.367,-19.955C17.367,-20.363 17.307,-21.332 17.028,-22.019C16.62,-22.925 16.05,-23.615 12.975,-23.951C11.997,-24.068 5.766,-24.125 5.148,-24.125C4.914,-24.125 4.797,-23.951 4.797,-23.555L4.797,-7.784C4.797,-7.388 4.857,-7.214 5.148,-7.214C5.88,-7.214 12.918,-7.214 14.232,-7.328C15.597,-7.445 16.401,-7.562 16.911,-8.12C17.307,-8.576 17.541,-8.879 17.775,-8.879C17.949,-8.879 18.066,-8.75 18.066,-8.412C18.066,-8.063 17.775,-7.097 17.601,-5.21C17.484,-4.079 17.367,-1.958 17.367,-1.553C17.367,-1.097 17.367,-0.467 16.971,-0.467C16.68,-0.467 16.563,-0.701 16.563,-0.98C16.563,-1.553 16.563,-2.123 16.353,-2.855C16.11,-3.671 15.597,-4.628 13.371,-4.871C11.823,-5.034 6.162,-5.15 5.205,-5.15C4.914,-5.15 4.797,-4.988 4.797,-4.742L4.797,0.277C4.797,2.223 4.74,8.839 4.797,10.051C4.974,13.987 5.823,14.745 11.427,14.745C12.918,14.745 15.432,14.745 16.911,14.104C18.393,13.474 19.08,12.334 19.488,10.003C19.602,9.364 19.719,9.142 19.998,9.142C20.337,9.142 20.337,9.595 20.337,10.003C20.337,10.447 19.884,14.338 19.602,15.547C19.197,17.028 18.741,17.028 16.506,17.028C12.231,17.028 9.084,16.912 6.861,16.852C4.623,16.737 3.261,16.678 2.398,16.678C2.271,16.678 1.314,16.678 0.105,16.737C-1.038,16.737 -2.343,16.852 -3.204,16.852C-3.822,16.852 -4.125,16.737 -4.125,16.399C-4.125,16.225 -3.996,16.048 -3.669,16.048C-3.147,16.048 -2.471,15.933 -1.947,15.817C-0.792,15.607 -0.513,14.338 -0.291,12.67C0,10.272 0,5.764 0,0.277L0,-9.788Z" style="fill:rgb(99,101,106);fill-rule:nonzero;"/>
        </g>
        <g transform="matrix(1,0,0,1,936.863,649.137)">
            <path d="M0,32.475C-5.547,27.501 -6.921,20.979 -6.921,15.552C-6.921,11.718 -5.604,5.043 -0.525,-0.045C2.91,-3.471 8.118,-6.162 16.923,-6.162C19.206,-6.162 22.41,-5.988 25.206,-5.475C27.372,-5.091 29.202,-4.728 31.029,-4.623C31.659,-4.566 31.776,-4.332 31.776,-3.996C31.776,-3.528 31.614,-2.853 31.497,-0.804C31.38,1.095 31.38,4.239 31.32,5.103C31.263,5.952 31.158,6.291 30.798,6.291C30.414,6.291 30.354,5.895 30.354,5.103C30.354,2.865 29.433,0.513 27.954,-0.744C25.951,-2.457 21.549,-3.996 16.515,-3.996C8.91,-3.996 5.38,-1.758 3.366,0.186C-0.792,4.182 -1.773,9.273 -1.773,15.096C-1.773,26.01 6.639,36.018 18.858,36.018C23.157,36.018 26.523,35.493 28.806,33.162C30.006,31.893 30.75,29.388 30.915,28.365C31.029,27.723 31.158,27.501 31.497,27.501C31.776,27.501 31.893,27.897 31.893,28.365C31.893,28.761 31.218,33.723 30.633,35.679C30.297,36.762 30.18,36.867 29.142,37.332C26.871,38.253 22.527,38.637 18.858,38.637C10.296,38.637 4.518,36.54 0,32.475" style="fill:rgb(99,101,106);fill-rule:nonzero;"/>
        </g>
        <g transform="matrix(1,0,0,1,1000.43,645.129)">
            <path d="M0,40.491C5.148,40.491 15.783,37.509 15.783,20.865C15.783,7.152 7.443,-0.219 -1.596,-0.219C-11.136,-0.219 -18.276,6.069 -18.276,18.591C-18.276,31.905 -10.275,40.491 0,40.491M-1.188,-2.154C11.673,-2.154 21.27,5.964 21.27,19.269C21.27,32.07 12.243,42.645 -1.527,42.645C-17.205,42.645 -23.715,30.474 -23.715,20.187C-23.715,10.938 -16.971,-2.154 -1.188,-2.154" style="fill:rgb(99,101,106);fill-rule:nonzero;"/>
        </g>
        <g transform="matrix(1,0,0,1,1078.8,650.349)">
            <path d="M0,29.319C0.231,31.38 0.627,34.572 3.075,35.388C4.74,35.877 6.231,35.877 6.789,35.877C7.08,35.877 7.257,35.946 7.257,36.18C7.257,36.519 6.732,36.693 6.057,36.693C4.797,36.693 -1.376,36.633 -3.495,36.459C-4.8,36.342 -5.091,36.18 -5.091,35.877C-5.091,35.655 -4.974,35.55 -4.683,35.493C-4.404,35.433 -4.347,34.467 -4.461,33.432L-7.2,3.774L-7.386,3.774L-21.375,33.489C-22.563,36.006 -22.749,36.519 -23.262,36.519C-23.67,36.519 -23.949,35.946 -25.034,33.885C-26.514,31.089 -31.44,21.201 -31.719,20.628C-32.232,19.593 -38.64,5.883 -39.267,4.344L-39.489,4.344L-41.784,30.855C-41.841,31.776 -41.841,32.814 -41.841,33.768C-41.841,34.629 -41.214,35.388 -40.35,35.55C-39.372,35.772 -38.523,35.829 -38.184,35.829C-37.953,35.829 -37.719,35.946 -37.719,36.12C-37.719,36.519 -38.067,36.633 -38.754,36.633C-40.863,36.633 -43.602,36.459 -44.067,36.459C-44.58,36.459 -47.328,36.633 -48.867,36.633C-49.449,36.633 -49.845,36.519 -49.845,36.12C-49.845,35.946 -49.566,35.829 -49.263,35.829C-48.807,35.829 -48.399,35.829 -47.55,35.655C-45.675,35.328 -45.5,33.093 -45.279,30.915L-41.142,-6.348C-41.085,-6.978 -40.863,-7.374 -40.538,-7.374C-40.176,-7.374 -39.954,-7.152 -39.675,-6.522L-22.179,29.424L-5.37,-6.465C-5.151,-6.978 -4.929,-7.374 -4.509,-7.374C-4.113,-7.374 -3.951,-6.918 -3.834,-5.835L0,29.319Z" style="fill:rgb(99,101,106);fill-rule:nonzero;"/>
        </g>
        <g transform="matrix(1,0,0,1,1094.37,671.211)">
            <path d="M0,-10.869C0,-19.791 0,-21.387 -0.117,-23.214C-0.234,-25.149 -0.687,-26.07 -2.562,-26.466C-3.018,-26.583 -4.008,-26.64 -4.509,-26.64C-4.74,-26.64 -4.974,-26.745 -4.974,-26.988C-4.974,-27.327 -4.683,-27.432 -4.065,-27.432C-1.491,-27.432 2.004,-27.27 2.517,-27.27C3.039,-27.27 6.465,-27.432 8.178,-27.432C8.793,-27.432 9.096,-27.327 9.096,-26.988C9.096,-26.745 8.853,-26.64 8.643,-26.64C8.235,-26.64 7.899,-26.583 7.2,-26.466C5.661,-26.244 5.208,-25.206 5.091,-23.214C4.974,-21.387 4.974,-19.791 4.974,-10.869L4.974,-2.865C4.974,5.37 6.813,8.922 9.261,11.253C12.069,13.884 14.631,14.409 17.892,14.409C21.387,14.409 24.81,12.756 26.874,10.286C29.493,7.023 30.192,2.166 30.192,-3.717L30.192,-10.869C30.192,-19.791 30.192,-21.387 30.075,-23.214C29.949,-25.149 29.493,-26.07 27.618,-26.466C27.153,-26.583 26.187,-26.64 25.662,-26.64C25.44,-26.64 25.206,-26.745 25.206,-26.988C25.206,-27.327 25.497,-27.432 26.127,-27.432C28.701,-27.432 31.848,-27.27 32.184,-27.27C32.58,-27.27 35.271,-27.432 36.984,-27.432C37.614,-27.432 37.905,-27.327 37.905,-26.988C37.905,-26.745 37.671,-26.64 37.449,-26.64C37.041,-26.64 36.693,-26.583 36.018,-26.466C34.467,-26.127 34.014,-25.206 33.897,-23.214C33.78,-21.387 33.78,-19.791 33.78,-10.869L33.78,-4.752C33.78,1.434 33.093,8.283 28.539,12.348C24.414,16.005 20.118,16.563 16.749,16.563C14.805,16.563 9.039,16.343 4.974,12.51C2.178,9.819 0,5.823 0,-2.517L0,-10.869Z" style="fill:rgb(99,101,106);fill-rule:nonzero;"/>
        </g>
        <g transform="matrix(1,0,0,1,1148,651.15)">
            <path d="M0,28.065C0.117,32.746 0.689,34.227 2.214,34.692C3.309,34.971 4.566,35.029 5.079,35.029C5.37,35.029 5.535,35.145 5.535,35.379C5.535,35.718 5.196,35.832 4.509,35.832C1.248,35.832 -1.035,35.658 -1.548,35.658C-2.061,35.658 -4.461,35.832 -7.035,35.832C-7.605,35.832 -7.944,35.775 -7.944,35.379C-7.944,35.145 -7.779,35.029 -7.488,35.029C-7.035,35.029 -6.009,34.971 -5.16,34.692C-3.714,34.284 -3.435,32.631 -3.435,27.435L-3.378,-5.333C-3.378,-7.545 -3.201,-8.175 -2.748,-8.175C-2.283,-8.175 -1.326,-6.927 -0.744,-6.345C0.117,-5.379 8.622,3.823 17.427,13.248C23.088,19.317 29.319,26.293 31.149,28.168L30.519,-0.86C30.45,-4.575 30.054,-5.822 28.284,-6.288C27.258,-6.521 25.941,-6.579 25.488,-6.579C25.092,-6.579 25.034,-6.741 25.034,-6.987C25.034,-7.323 25.488,-7.371 26.163,-7.371C28.737,-7.371 31.487,-7.208 32.115,-7.208C32.745,-7.208 34.644,-7.371 36.972,-7.371C37.602,-7.371 38.01,-7.323 38.01,-6.987C38.01,-6.741 37.776,-6.579 37.368,-6.579C37.089,-6.579 36.693,-6.579 35.994,-6.404C34.119,-6.008 33.887,-4.749 33.887,-1.326L33.782,32.175C33.782,35.937 33.654,36.24 33.258,36.24C32.802,36.24 32.115,35.601 29.099,32.571C28.458,32.013 20.235,23.602 14.166,17.079C7.538,9.939 1.085,2.74 -0.744,0.678L0,28.065Z" style="fill:rgb(99,101,106);fill-rule:nonzero;"/>
        </g>
        <g transform="matrix(1,0,0,1,1206.69,660.354)">
            <path d="M0,10.053C0,15.54 0,20.049 0.279,22.446C0.453,24.114 0.792,25.383 2.505,25.593C3.309,25.71 4.554,25.824 5.079,25.824C5.418,25.824 5.544,26.001 5.544,26.175C5.544,26.454 5.241,26.628 4.614,26.628C1.479,26.628 -2.121,26.454 -2.412,26.454C-2.703,26.454 -6.303,26.628 -8.013,26.628C-8.631,26.628 -8.922,26.514 -8.922,26.175C-8.922,26.001 -8.805,25.824 -8.481,25.824C-7.956,25.824 -7.257,25.71 -6.768,25.593C-5.604,25.383 -5.322,24.114 -5.091,22.446C-4.812,20.049 -4.812,15.54 -4.812,10.053L-4.812,-0.012C-4.812,-8.934 -4.812,-10.53 -4.917,-12.357C-5.043,-14.292 -5.604,-15.27 -6.861,-15.549C-7.5,-15.726 -8.235,-15.783 -8.631,-15.783C-8.865,-15.783 -9.096,-15.888 -9.096,-16.131C-9.096,-16.47 -8.805,-16.575 -8.178,-16.575C-6.303,-16.575 -2.703,-16.413 -2.412,-16.413C-2.121,-16.413 1.479,-16.575 3.192,-16.575C3.822,-16.575 4.113,-16.47 4.113,-16.131C4.113,-15.888 3.891,-15.783 3.645,-15.783C3.249,-15.783 2.901,-15.726 2.214,-15.609C0.675,-15.33 0.222,-14.349 0.105,-12.357C0,-10.53 0,-8.934 0,-0.012L0,10.053Z" style="fill:rgb(99,101,106);fill-rule:nonzero;"/>
        </g>
        <g transform="matrix(1,0,0,1,1227.93,649.137)">
            <path d="M0,32.475C-5.544,27.501 -6.906,20.979 -6.906,15.552C-6.906,11.718 -5.601,5.043 -0.513,-0.045C2.937,-3.471 8.12,-6.162 16.926,-6.162C19.221,-6.162 22.413,-5.988 25.208,-5.475C27.387,-5.091 29.202,-4.728 31.044,-4.623C31.673,-4.566 31.778,-4.332 31.778,-3.996C31.778,-3.528 31.614,-2.853 31.497,-0.804C31.382,1.095 31.382,4.239 31.323,5.103C31.277,5.952 31.161,6.291 30.81,6.291C30.426,6.291 30.369,5.895 30.369,5.103C30.369,2.865 29.448,0.513 27.957,-0.744C25.953,-2.457 21.549,-3.996 16.53,-3.996C8.924,-3.996 5.382,-1.758 3.366,0.186C-0.792,4.182 -1.77,9.273 -1.77,15.096C-1.77,26.01 6.639,36.018 18.86,36.018C23.157,36.018 26.535,35.493 28.806,33.162C30.006,31.893 30.753,29.388 30.915,28.365C31.044,27.723 31.161,27.501 31.497,27.501C31.778,27.501 31.905,27.897 31.905,28.365C31.905,28.761 31.218,33.723 30.636,35.679C30.309,36.762 30.182,36.867 29.145,37.332C26.874,38.253 22.53,38.637 18.86,38.637C10.299,38.637 4.533,36.54 0,32.475" style="fill:rgb(99,101,106);fill-rule:nonzero;"/>
        </g>
        <g transform="matrix(1,0,0,1,1289.05,661.89)">
            <path d="M0,6.177C0.291,6.177 0.291,6 0.234,5.769L-5.205,-9.666C-5.484,-10.527 -5.766,-10.527 -6.069,-9.666L-11.088,5.769C-11.205,6.06 -11.088,6.177 -10.914,6.177L0,6.177ZM-5.952,-16.689C-5.265,-18.576 -5.031,-18.915 -4.693,-18.915C-4.356,-18.915 -4.11,-18.636 -3.435,-16.865C-2.574,-14.685 6.396,8.913 9.879,17.604C11.94,22.683 13.607,23.601 14.805,23.952C15.657,24.231 16.518,24.288 17.078,24.288C17.427,24.288 17.661,24.336 17.661,24.639C17.661,24.978 17.136,25.092 16.518,25.092C15.657,25.092 11.475,25.092 7.548,24.978C6.453,24.918 5.838,24.918 5.838,24.579C5.838,24.336 5.988,24.231 6.222,24.174C6.57,24.057 6.909,23.544 6.57,22.623L1.248,8.577C1.131,8.355 1.026,8.226 0.735,8.226L-11.553,8.226C-11.835,8.226 -12.009,8.4 -12.126,8.691L-15.561,18.804C-16.062,20.235 -16.353,21.609 -16.353,22.623C-16.353,23.787 -15.153,24.288 -14.187,24.288L-13.605,24.288C-13.209,24.288 -13.032,24.405 -13.032,24.639C-13.032,24.978 -13.383,25.092 -13.896,25.092C-15.258,25.092 -17.727,24.918 -18.345,24.918C-18.987,24.918 -22.119,25.092 -24.81,25.092C-25.545,25.092 -25.893,24.978 -25.893,24.639C-25.893,24.405 -25.659,24.288 -25.38,24.288C-24.984,24.288 -24.18,24.231 -23.727,24.174C-21.093,23.847 -19.941,21.669 -18.927,18.804L-5.952,-16.689Z" style="fill:rgb(99,101,106);fill-rule:nonzero;"/>
        </g>
        <g transform="matrix(1,0,0,1,1316.61,649.137)">
            <path d="M0,32.475C-5.532,27.501 -6.906,20.979 -6.906,15.552C-6.906,11.718 -5.592,5.043 -0.513,-0.045C2.925,-3.471 8.118,-6.162 16.926,-6.162C19.209,-6.162 22.413,-5.988 25.208,-5.475C27.375,-5.091 29.214,-4.728 31.044,-4.623C31.673,-4.566 31.788,-4.332 31.788,-3.996C31.788,-3.528 31.626,-2.853 31.497,-0.804C31.38,1.095 31.38,4.239 31.323,5.103C31.266,5.952 31.161,6.291 30.81,6.291C30.414,6.291 30.369,5.895 30.369,5.103C30.369,2.865 29.448,0.513 27.957,-0.744C25.965,-2.457 21.549,-3.996 16.53,-3.996C8.922,-3.996 5.382,-1.758 3.378,0.186C-0.792,4.182 -1.77,9.273 -1.77,15.096C-1.77,26.01 6.651,36.018 18.87,36.018C23.157,36.018 26.523,35.493 28.806,33.162C30.018,31.893 30.765,29.388 30.927,28.365C31.044,27.723 31.161,27.501 31.497,27.501C31.788,27.501 31.905,27.897 31.905,28.365C31.905,28.761 31.206,33.723 30.648,35.679C30.309,36.762 30.192,36.867 29.157,37.332C26.886,38.253 22.527,38.637 18.87,38.637C10.299,38.637 4.533,36.54 0,32.475" style="fill:rgb(99,101,106);fill-rule:nonzero;"/>
        </g>
        <g transform="matrix(1,0,0,1,1368.36,660.354)">
            <path d="M0,10.053C0,15.54 0,20.049 0.291,22.446C0.465,24.114 0.792,25.383 2.514,25.593C3.318,25.71 4.566,25.824 5.089,25.824C5.427,25.824 5.544,26.001 5.544,26.175C5.544,26.454 5.253,26.628 4.623,26.628C1.479,26.628 -2.109,26.454 -2.412,26.454C-2.691,26.454 -6.291,26.628 -8.004,26.628C-8.622,26.628 -8.913,26.514 -8.913,26.175C-8.913,26.001 -8.808,25.824 -8.469,25.824C-7.944,25.824 -7.257,25.71 -6.756,25.593C-5.604,25.383 -5.313,24.114 -5.079,22.446C-4.8,20.049 -4.8,15.54 -4.8,10.053L-4.8,-0.012C-4.8,-8.934 -4.8,-10.53 -4.917,-12.357C-5.034,-14.292 -5.604,-15.27 -6.851,-15.549C-7.491,-15.726 -8.237,-15.783 -8.622,-15.783C-8.865,-15.783 -9.087,-15.888 -9.087,-16.131C-9.087,-16.47 -8.808,-16.575 -8.178,-16.575C-6.291,-16.575 -2.691,-16.413 -2.412,-16.413C-2.109,-16.413 1.479,-16.575 3.19,-16.575C3.831,-16.575 4.11,-16.47 4.11,-16.131C4.11,-15.888 3.889,-15.783 3.657,-15.783C3.249,-15.783 2.91,-15.726 2.235,-15.609C0.675,-15.33 0.231,-14.349 0.115,-12.357C0,-10.53 0,-8.934 0,-0.012L0,10.053Z" style="fill:rgb(99,101,106);fill-rule:nonzero;"/>
        </g>
        <g transform="matrix(1,0,0,1,1405.86,645.129)">
            <path d="M0,40.491C5.139,40.491 15.762,37.509 15.762,20.865C15.762,7.152 7.422,-0.219 -1.608,-0.219C-11.148,-0.219 -18.3,6.069 -18.3,18.591C-18.3,31.905 -10.296,40.491 0,40.491M-1.212,-2.154C11.649,-2.154 21.246,5.964 21.246,19.269C21.246,32.07 12.219,42.645 -1.548,42.645C-17.205,42.645 -23.727,30.474 -23.727,20.187C-23.727,10.938 -16.983,-2.154 -1.212,-2.154" style="fill:rgb(99,101,106);fill-rule:nonzero;"/>
        </g>
        <g transform="matrix(1,0,0,1,1442.09,651.15)">
            <path d="M0,28.065C0.117,32.746 0.687,34.227 2.223,34.692C3.318,34.971 4.578,35.029 5.091,35.029C5.37,35.029 5.544,35.145 5.544,35.379C5.544,35.718 5.196,35.832 4.506,35.832C1.245,35.832 -1.026,35.658 -1.551,35.658C-2.061,35.658 -4.461,35.832 -7.035,35.832C-7.608,35.832 -7.944,35.775 -7.944,35.379C-7.944,35.145 -7.782,35.029 -7.479,35.029C-7.035,35.029 -6.012,34.971 -5.148,34.692C-3.717,34.284 -3.438,32.631 -3.438,27.435L-3.378,-5.333C-3.378,-7.545 -3.204,-8.175 -2.75,-8.175C-2.283,-8.175 -1.329,-6.927 -0.747,-6.345C0.117,-5.379 8.631,3.823 17.424,13.248C23.088,19.317 29.319,26.293 31.146,28.168L30.519,-0.86C30.459,-4.575 30.051,-5.822 28.293,-6.288C27.267,-6.521 25.941,-6.579 25.485,-6.579C25.089,-6.579 25.032,-6.741 25.032,-6.987C25.032,-7.323 25.485,-7.371 26.163,-7.371C28.737,-7.371 31.485,-7.208 32.127,-7.208C32.742,-7.208 34.641,-7.371 36.972,-7.371C37.602,-7.371 38.007,-7.323 38.007,-6.987C38.007,-6.741 37.776,-6.579 37.368,-6.579C37.089,-6.579 36.693,-6.579 36.006,-6.404C34.119,-6.008 33.885,-4.749 33.885,-1.326L33.78,32.175C33.78,35.937 33.663,36.24 33.255,36.24C32.802,36.24 32.127,35.601 29.097,32.571C28.458,32.013 20.232,23.602 14.163,17.079C7.536,9.939 1.083,2.74 -0.747,0.678L0,28.065Z" style="fill:rgb(99,101,106);fill-rule:nonzero;"/>
        </g>
        <g transform="matrix(1,0,0,1,1495.97,670.13)">
            <path d="M0,-9.788C0,-18.71 0,-20.306 -0.117,-22.133C-0.222,-24.068 -0.677,-24.989 -2.565,-25.385C-3.03,-25.502 -3.996,-25.559 -4.509,-25.559C-4.743,-25.559 -4.962,-25.664 -4.962,-25.907C-4.962,-26.246 -4.683,-26.351 -4.056,-26.351C-2.751,-26.351 -1.2,-26.351 0.057,-26.303L2.4,-26.189C2.805,-26.189 14.175,-26.189 15.492,-26.246C16.563,-26.303 17.484,-26.408 17.949,-26.525C18.228,-26.585 18.462,-26.816 18.741,-26.816C18.915,-26.816 18.975,-26.585 18.975,-26.303C18.975,-25.907 18.696,-25.22 18.519,-23.615C18.462,-23.042 18.345,-20.528 18.228,-19.841C18.171,-19.559 18.066,-19.211 17.832,-19.211C17.484,-19.211 17.379,-19.502 17.379,-19.955C17.379,-20.363 17.319,-21.332 17.028,-22.019C16.62,-22.925 16.074,-23.615 12.975,-23.951C12.009,-24.068 5.778,-24.125 5.148,-24.125C4.926,-24.125 4.809,-23.951 4.809,-23.555L4.809,-7.784C4.809,-7.388 4.869,-7.214 5.148,-7.214C5.883,-7.214 12.918,-7.214 14.232,-7.328C15.609,-7.445 16.401,-7.562 16.923,-8.12C17.319,-8.576 17.541,-8.879 17.787,-8.879C17.949,-8.879 18.066,-8.75 18.066,-8.412C18.066,-8.063 17.787,-7.097 17.61,-5.21C17.484,-4.079 17.379,-1.958 17.379,-1.553C17.379,-1.097 17.379,-0.467 16.971,-0.467C16.68,-0.467 16.563,-0.701 16.563,-0.98C16.563,-1.553 16.563,-2.123 16.353,-2.855C16.131,-3.671 15.609,-4.628 13.371,-4.871C11.823,-5.034 6.174,-5.15 5.205,-5.15C4.926,-5.15 4.809,-4.988 4.809,-4.742L4.809,0.277C4.809,2.223 4.752,8.839 4.809,10.051C4.974,13.987 5.823,14.745 11.427,14.745C12.918,14.745 15.432,14.745 16.923,14.104C18.405,13.474 19.092,12.334 19.5,10.003C19.602,9.364 19.719,9.142 19.998,9.142C20.349,9.142 20.349,9.595 20.349,10.003C20.349,10.447 19.896,14.338 19.602,15.547C19.206,17.028 18.741,17.028 16.518,17.028C12.243,17.028 9.084,16.912 6.861,16.852C4.623,16.737 3.261,16.678 2.4,16.678C2.295,16.678 1.314,16.678 0.117,16.737C-1.038,16.737 -2.343,16.852 -3.204,16.852C-3.822,16.852 -4.101,16.737 -4.101,16.399C-4.101,16.225 -3.996,16.048 -3.669,16.048C-3.147,16.048 -2.448,15.933 -1.947,15.817C-0.792,15.607 -0.513,14.338 -0.281,12.67C0,10.272 0,5.764 0,0.277L0,-9.788Z" style="fill:rgb(99,101,106);fill-rule:nonzero;"/>
        </g>
        <g transform="matrix(1,0,0,1,1528.53,644.523)">
            <path d="M0,41.703C-0.804,41.319 -0.861,41.097 -0.861,39.537C-0.861,36.681 -0.618,34.389 -0.558,33.492C-0.513,32.85 -0.396,32.571 -0.117,32.571C0.234,32.571 0.291,32.733 0.291,33.201C0.291,33.711 0.291,34.515 0.456,35.307C1.317,39.537 5.091,41.154 8.922,41.154C14.409,41.154 17.1,37.206 17.1,33.537C17.1,29.601 15.435,27.318 10.518,23.253L7.944,21.144C1.887,16.17 0.513,12.618 0.513,8.739C0.513,2.622 5.091,-1.548 12.36,-1.548C14.574,-1.548 16.239,-1.326 17.658,-0.978C18.753,-0.744 19.209,-0.696 19.674,-0.696C20.13,-0.696 20.235,-0.582 20.235,-0.3C20.235,-0.009 20.013,1.878 20.013,5.766C20.013,6.675 19.896,7.071 19.617,7.071C19.266,7.071 19.209,6.792 19.149,6.351C19.092,5.652 18.753,4.113 18.405,3.474C18.066,2.856 16.518,0.444 11.253,0.444C7.317,0.444 4.23,2.913 4.23,7.071C4.23,10.335 5.721,12.396 11.196,16.683L12.789,17.94C19.557,23.253 21.153,26.793 21.153,31.371C21.153,33.711 20.235,38.058 16.296,40.854C13.839,42.564 10.752,43.251 7.665,43.251C4.986,43.251 2.343,42.867 0,41.703" style="fill:rgb(99,101,106);fill-rule:nonzero;"/>
        </g>
        <g transform="matrix(1,0,0,1,756.243,737.013)">
            <path d="M0,13.605C0,10.518 -0.582,9.261 -1.317,7.605C-1.713,6.687 -9.366,-5.883 -11.37,-8.865C-12.803,-10.974 -14.235,-12.405 -15.261,-13.08C-16.11,-13.665 -17.205,-14.001 -17.718,-14.001C-17.997,-14.001 -18.288,-14.118 -18.288,-14.409C-18.288,-14.643 -18.057,-14.793 -17.544,-14.793C-16.461,-14.793 -12.174,-14.643 -11.895,-14.643C-11.487,-14.643 -9.309,-14.793 -7.083,-14.793C-6.453,-14.793 -6.348,-14.643 -6.348,-14.409C-6.348,-14.175 -6.675,-14.118 -7.2,-13.884C-7.653,-13.665 -7.944,-13.314 -7.944,-12.87C-7.944,-12.174 -7.653,-11.484 -7.2,-10.635C-6.291,-8.982 2.295,5.766 3.306,7.419C4.413,5.031 11.67,-7.479 12.801,-9.378C13.557,-10.578 13.767,-11.544 13.767,-12.288C13.767,-13.08 13.557,-13.722 12.858,-13.884C12.336,-14.061 11.997,-14.175 11.997,-14.466C11.997,-14.7 12.336,-14.793 12.918,-14.793C14.409,-14.793 16.224,-14.643 16.692,-14.643C17.028,-14.643 21.141,-14.793 22.236,-14.793C22.644,-14.793 22.98,-14.7 22.98,-14.466C22.98,-14.175 22.689,-14.001 22.236,-14.001C21.606,-14.001 20.523,-13.779 19.602,-13.197C18.462,-12.522 17.832,-11.835 16.587,-10.296C14.688,-8.001 6.684,5.427 5.661,7.887C4.797,9.936 4.797,11.718 4.797,13.605L4.797,18.51C4.797,19.431 4.797,21.84 4.974,24.228C5.079,25.884 5.601,27.153 7.314,27.375C8.118,27.48 9.375,27.594 9.888,27.594C10.227,27.594 10.344,27.783 10.344,27.945C10.344,28.236 10.062,28.398 9.435,28.398C6.288,28.398 2.691,28.236 2.409,28.236C2.118,28.236 -1.479,28.398 -3.192,28.398C-3.834,28.398 -4.113,28.293 -4.113,27.945C-4.113,27.783 -4.008,27.594 -3.648,27.594C-3.147,27.594 -2.46,27.48 -1.935,27.375C-0.804,27.153 -0.281,25.884 -0.165,24.228C0,21.84 0,19.431 0,18.51L0,13.605Z" style="fill:rgb(99,101,106);fill-rule:nonzero;"/>
        </g>
        <g transform="matrix(1,0,0,1,820.751,737.979)">
            <path d="M0,10.869C0,16.344 0,20.874 0.291,23.262C0.465,24.918 0.792,26.187 2.514,26.409C3.318,26.514 4.566,26.628 5.089,26.628C5.427,26.628 5.544,26.817 5.544,26.979C5.544,27.27 5.265,27.432 4.623,27.432C1.491,27.432 -2.109,27.27 -2.4,27.27C-2.691,27.27 -6.279,27.432 -7.992,27.432C-8.622,27.432 -8.913,27.327 -8.913,26.979C-8.913,26.817 -8.796,26.628 -8.457,26.628C-7.934,26.628 -7.257,26.514 -6.744,26.409C-5.604,26.187 -5.313,24.918 -5.079,23.262C-4.8,20.874 -4.8,16.344 -4.8,10.869L-4.8,-13.314L-13.257,-13.197C-16.797,-13.14 -18.171,-12.744 -19.08,-11.367C-19.71,-10.401 -19.884,-10.005 -20.049,-9.609C-20.235,-9.144 -20.397,-9.027 -20.631,-9.027C-20.805,-9.027 -20.91,-9.201 -20.91,-9.552C-20.91,-10.11 -19.767,-15.027 -19.653,-15.492C-19.548,-15.819 -19.314,-16.563 -19.08,-16.563C-18.684,-16.563 -18.114,-16.005 -16.566,-15.888C-14.91,-15.702 -12.732,-15.609 -12.057,-15.609L9.375,-15.609C11.205,-15.609 12.522,-15.702 13.431,-15.888C14.292,-16.005 14.817,-16.167 15.036,-16.167C15.306,-16.167 15.306,-15.819 15.306,-15.492C15.306,-13.779 15.141,-9.831 15.141,-9.201C15.141,-8.688 14.979,-8.445 14.757,-8.445C14.466,-8.445 14.349,-8.631 14.292,-9.423L14.232,-10.062C14.058,-11.775 12.696,-13.092 7.197,-13.197L0,-13.314L0,10.869Z" style="fill:rgb(99,101,106);fill-rule:nonzero;"/>
        </g>
        <g transform="matrix(1,0,0,1,853.983,743.874)">
            <path d="M0,-0.117C0,0.174 0.117,0.384 0.408,0.558C1.26,1.083 3.891,1.479 6.396,1.479C7.782,1.479 9.378,1.305 10.683,0.384C12.687,-0.978 14.178,-4.065 14.178,-8.409C14.178,-15.552 10.404,-19.836 4.287,-19.836C2.574,-19.836 1.026,-19.674 0.468,-19.5C0.165,-19.383 0,-19.149 0,-18.813L0,-0.117ZM-4.578,-5.103C-4.578,-14.013 -4.578,-15.609 -4.683,-17.439C-4.797,-19.383 -5.253,-20.292 -7.152,-20.7C-7.605,-20.805 -8.562,-20.862 -9.084,-20.862C-9.306,-20.862 -9.552,-20.979 -9.552,-21.213C-9.552,-21.561 -9.259,-21.654 -8.631,-21.654C-6.057,-21.654 -2.457,-21.504 -2.166,-21.504C-1.548,-21.504 2.796,-21.654 4.566,-21.654C8.166,-21.654 12,-21.327 15.039,-19.149C16.473,-18.126 18.987,-15.318 18.987,-11.382C18.987,-7.14 17.217,-2.925 12.057,1.83C16.752,7.815 20.643,12.918 23.949,16.458C27.036,19.71 29.495,20.349 30.927,20.571C31.998,20.733 32.814,20.733 33.153,20.733C33.444,20.733 33.677,20.922 33.677,21.084C33.677,21.432 33.315,21.537 32.291,21.537L28.236,21.537C25.034,21.537 23.613,21.258 22.122,20.454C19.664,19.137 17.661,16.344 14.399,12.057C12,8.922 9.32,5.091 8.166,3.6C7.944,3.378 7.782,3.261 7.433,3.261L0.408,3.132C0.117,3.132 0,3.321 0,3.6L0,4.974C0,10.449 0,14.979 0.291,17.367C0.468,19.023 0.792,20.292 2.517,20.514C3.309,20.619 4.566,20.733 5.091,20.733C5.43,20.733 5.547,20.922 5.547,21.084C5.547,21.375 5.265,21.537 4.626,21.537C1.479,21.537 -2.107,21.375 -2.409,21.375C-2.457,21.375 -6.057,21.537 -7.768,21.537C-8.397,21.537 -8.688,21.432 -8.688,21.084C-8.688,20.922 -8.562,20.733 -8.235,20.733C-7.71,20.733 -7.035,20.619 -6.522,20.514C-5.37,20.292 -5.079,19.023 -4.857,17.367C-4.578,14.979 -4.578,10.449 -4.578,4.974L-4.578,-5.103Z" style="fill:rgb(99,101,106);fill-rule:nonzero;"/>
        </g>
        <g transform="matrix(1,0,0,1,908.3,740.331)">
            <path d="M0,6.165C0.291,6.165 0.291,6 0.234,5.757L-5.196,-9.666C-5.499,-10.527 -5.778,-10.527 -6.057,-9.666L-11.091,5.757C-11.205,6.06 -11.091,6.165 -10.914,6.165L0,6.165ZM-5.952,-16.701C-5.253,-18.576 -5.043,-18.915 -4.695,-18.915C-4.344,-18.915 -4.125,-18.636 -3.426,-16.866C-2.574,-14.687 6.396,8.913 9.888,17.604C11.94,22.68 13.593,23.601 14.805,23.952C15.654,24.219 16.518,24.276 17.088,24.276C17.427,24.276 17.658,24.336 17.658,24.627C17.658,24.975 17.145,25.08 16.518,25.08C15.654,25.08 11.484,25.08 7.548,24.975C6.453,24.918 5.823,24.918 5.823,24.567C5.823,24.336 6,24.219 6.219,24.162C6.558,24.057 6.918,23.544 6.558,22.623L1.257,8.574C1.14,8.343 1.026,8.214 0.735,8.214L-11.556,8.214C-11.835,8.214 -12.021,8.4 -12.126,8.679L-15.552,18.802C-16.074,20.235 -16.344,21.597 -16.344,22.623C-16.344,23.775 -15.144,24.276 -14.187,24.276L-13.605,24.276C-13.209,24.276 -13.035,24.393 -13.035,24.627C-13.035,24.975 -13.374,25.08 -13.896,25.08C-15.27,25.08 -17.73,24.918 -18.348,24.918C-18.975,24.918 -22.122,25.08 -24.81,25.08C-25.545,25.08 -25.896,24.975 -25.896,24.627C-25.896,24.393 -25.674,24.276 -25.371,24.276C-24.987,24.276 -24.183,24.219 -23.715,24.162C-21.096,23.835 -19.941,21.657 -18.918,18.802L-5.952,-16.701Z" style="fill:rgb(99,101,106);fill-rule:nonzero;"/>
        </g>
        <g transform="matrix(1,0,0,1,937.013,729.594)">
            <path d="M0,28.047C0.129,32.73 0.675,34.221 2.226,34.688C3.321,34.956 4.566,35.013 5.091,35.013C5.37,35.013 5.544,35.13 5.544,35.364C5.544,35.712 5.208,35.817 4.509,35.817C1.257,35.817 -1.038,35.655 -1.548,35.655C-2.049,35.655 -4.461,35.817 -7.035,35.817C-7.605,35.817 -7.944,35.76 -7.944,35.364C-7.944,35.13 -7.77,35.013 -7.491,35.013C-7.035,35.013 -6,34.956 -5.148,34.688C-3.717,34.281 -3.435,32.625 -3.435,27.42L-3.378,-5.337C-3.378,-7.56 -3.204,-8.178 -2.748,-8.178C-2.283,-8.178 -1.317,-6.933 -0.735,-6.36C0.129,-5.394 8.631,3.819 17.427,13.242C23.088,19.311 29.331,26.265 31.149,28.164L30.519,-0.864C30.462,-4.59 30.066,-5.838 28.293,-6.303C27.258,-6.525 25.941,-6.582 25.5,-6.582C25.092,-6.582 25.044,-6.756 25.044,-6.99C25.044,-7.317 25.5,-7.374 26.175,-7.374C28.749,-7.374 31.497,-7.224 32.115,-7.224C32.757,-7.224 34.632,-7.374 36.972,-7.374C37.602,-7.374 38.01,-7.317 38.01,-6.99C38.01,-6.756 37.776,-6.582 37.38,-6.582C37.101,-6.582 36.693,-6.582 36.006,-6.42C34.119,-6.012 33.897,-4.755 33.897,-1.329L33.768,32.172C33.768,35.934 33.651,36.225 33.255,36.225C32.814,36.225 32.115,35.597 29.097,32.568C28.47,31.986 20.244,23.598 14.175,17.076C7.536,9.924 1.083,2.724 -0.735,0.675L0,28.047Z" style="fill:rgb(99,101,106);fill-rule:nonzero;"/>
        </g>
        <g transform="matrix(1,0,0,1,987.242,722.952)">
            <path d="M0,41.715C-0.792,41.331 -0.852,41.097 -0.852,39.558C-0.852,36.693 -0.63,34.398 -0.573,33.492C-0.513,32.862 -0.396,32.571 -0.105,32.571C0.222,32.571 0.279,32.745 0.279,33.21C0.279,33.723 0.279,34.515 0.453,35.319C1.314,39.558 5.091,41.154 8.922,41.154C14.409,41.154 17.088,37.206 17.088,33.549C17.088,29.601 15.432,27.306 10.518,23.262L7.956,21.156C1.887,16.17 0.522,12.627 0.522,8.739C0.522,2.634 5.091,-1.536 12.348,-1.536C14.571,-1.536 16.236,-1.314 17.67,-0.978C18.741,-0.732 19.206,-0.675 19.662,-0.675C20.115,-0.675 20.232,-0.582 20.232,-0.291C20.232,-0 20.001,1.888 20.001,5.778C20.001,6.675 19.896,7.083 19.605,7.083C19.266,7.083 19.206,6.792 19.149,6.339C19.104,5.664 18.741,4.113 18.405,3.483C18.066,2.856 16.518,0.456 11.262,0.456C7.314,0.456 4.227,2.913 4.227,7.083C4.227,10.344 5.718,12.396 11.205,16.683L12.801,17.94C19.557,23.262 21.153,26.805 21.153,31.371C21.153,33.723 20.232,38.067 16.296,40.863C13.839,42.576 10.752,43.251 7.653,43.251C4.974,43.251 2.34,42.867 0,41.715" style="fill:rgb(99,101,106);fill-rule:nonzero;"/>
        </g>
        <g transform="matrix(1,0,0,1,1024.84,748.86)">
            <path d="M0,-10.089C0,-18.999 0,-20.595 -0.103,-22.425C-0.231,-24.369 -0.687,-25.278 -2.574,-25.686C-3.027,-25.791 -3.993,-25.848 -4.518,-25.848C-4.74,-25.848 -4.974,-25.965 -4.974,-26.199C-4.974,-26.547 -4.693,-26.64 -4.053,-26.64C-1.491,-26.64 1.935,-26.49 2.4,-26.49C3.648,-26.49 6.966,-26.64 9.6,-26.64C16.752,-26.64 19.326,-24.252 20.235,-23.391C21.492,-22.203 23.088,-19.629 23.088,-16.599C23.088,-8.481 17.148,-2.982 9.029,-2.982C8.748,-2.982 8.121,-2.982 7.818,-3.042C7.538,-3.042 7.212,-3.156 7.212,-3.447C7.212,-3.903 7.538,-3.96 8.748,-3.96C14.283,-3.96 18.627,-8.025 18.627,-13.281C18.627,-15.168 18.464,-18.999 15.435,-22.086C12.407,-25.161 8.924,-24.927 7.596,-24.927C6.63,-24.927 5.651,-24.822 5.151,-24.603C4.8,-24.486 4.695,-24.078 4.695,-23.508L4.695,-0.012C4.695,5.463 4.695,9.993 4.974,12.381C5.151,14.037 5.487,15.306 7.212,15.528C8.004,15.632 9.249,15.747 9.774,15.747C10.113,15.747 10.229,15.935 10.229,16.098C10.229,16.389 9.936,16.551 9.309,16.551C6.162,16.551 2.576,16.389 2.283,16.389C2.109,16.389 -1.491,16.551 -3.201,16.551C-3.831,16.551 -4.11,16.446 -4.11,16.098C-4.11,15.935 -3.993,15.747 -3.669,15.747C-3.144,15.747 -2.457,15.632 -1.956,15.528C-0.802,15.306 -0.51,14.037 -0.291,12.381C0,9.993 0,5.463 0,-0.012L0,-10.089Z" style="fill:rgb(99,101,106);fill-rule:nonzero;"/>
        </g>
        <g transform="matrix(1,0,0,1,1080.08,723.57)">
            <path d="M0,40.479C5.136,40.479 15.759,37.497 15.759,20.862C15.759,7.152 7.431,-0.222 -1.596,-0.222C-11.148,-0.222 -18.288,6.057 -18.288,18.579C-18.288,31.893 -10.287,40.479 0,40.479M-1.2,-2.154C11.658,-2.154 21.258,5.964 21.258,19.266C21.258,32.07 12.231,42.633 -1.539,42.633C-17.217,42.633 -23.729,30.474 -23.729,20.187C-23.729,10.926 -16.974,-2.154 -1.2,-2.154" style="fill:rgb(99,101,106);fill-rule:nonzero;"/>
        </g>
        <g transform="matrix(1,0,0,1,1119.35,743.874)">
            <path d="M0,-0.117C0,0.174 0.117,0.384 0.408,0.558C1.257,1.083 3.891,1.479 6.393,1.479C7.779,1.479 9.375,1.305 10.692,0.384C12.684,-0.978 14.175,-4.065 14.175,-8.409C14.175,-15.552 10.401,-19.836 4.296,-19.836C2.586,-19.836 1.023,-19.674 0.465,-19.5C0.174,-19.383 0,-19.149 0,-18.813L0,-0.117ZM-4.578,-5.103C-4.578,-14.013 -4.578,-15.609 -4.671,-17.439C-4.8,-19.383 -5.253,-20.292 -7.152,-20.7C-7.608,-20.805 -8.562,-20.862 -9.087,-20.862C-9.321,-20.862 -9.54,-20.979 -9.54,-21.213C-9.54,-21.561 -9.261,-21.654 -8.622,-21.654C-6.057,-21.654 -2.469,-21.504 -2.166,-21.504C-1.551,-21.504 2.796,-21.654 4.566,-21.654C8.175,-21.654 11.997,-21.327 15.036,-19.149C16.47,-18.126 18.987,-15.318 18.987,-11.382C18.987,-7.14 17.217,-2.925 12.054,1.83C16.749,7.815 20.64,12.918 23.949,16.458C27.036,19.71 29.493,20.349 30.927,20.571C31.998,20.733 32.802,20.733 33.15,20.733C33.441,20.733 33.663,20.922 33.663,21.084C33.663,21.432 33.324,21.537 32.289,21.537L28.236,21.537C25.032,21.537 23.61,21.258 22.119,20.454C19.662,19.137 17.658,16.344 14.397,12.057C11.997,8.922 9.318,5.091 8.175,3.6C7.944,3.378 7.779,3.261 7.431,3.261L0.408,3.132C0.117,3.132 0,3.321 0,3.6L0,4.974C0,10.449 0,14.979 0.291,17.367C0.465,19.023 0.792,20.292 2.514,20.514C3.318,20.619 4.566,20.733 5.088,20.733C5.427,20.733 5.544,20.922 5.544,21.084C5.544,21.375 5.265,21.537 4.623,21.537C1.479,21.537 -2.109,21.375 -2.412,21.375C-2.469,21.375 -6.057,21.537 -7.77,21.537C-8.4,21.537 -8.679,21.432 -8.679,21.084C-8.679,20.922 -8.562,20.733 -8.235,20.733C-7.713,20.733 -7.026,20.619 -6.525,20.514C-5.37,20.292 -5.079,19.023 -4.857,17.367C-4.578,14.979 -4.578,10.449 -4.578,4.974L-4.578,-5.103Z" style="fill:rgb(99,101,106);fill-rule:nonzero;"/>
        </g>
        <g transform="matrix(1,0,0,1,1168.51,737.979)">
            <path d="M0,10.869C0,16.344 0,20.874 0.291,23.262C0.465,24.918 0.804,26.187 2.517,26.409C3.321,26.514 4.578,26.628 5.091,26.628C5.439,26.628 5.556,26.817 5.556,26.979C5.556,27.27 5.265,27.432 4.635,27.432C1.491,27.432 -2.121,27.27 -2.4,27.27C-2.679,27.27 -6.291,27.432 -8.001,27.432C-8.631,27.432 -8.91,27.327 -8.91,26.979C-8.91,26.817 -8.793,26.628 -8.457,26.628C-7.944,26.628 -7.257,26.514 -6.744,26.409C-5.604,26.187 -5.313,24.918 -5.079,23.262C-4.8,20.874 -4.8,16.344 -4.8,10.869L-4.8,-13.314L-13.257,-13.197C-16.809,-13.14 -18.171,-12.744 -19.092,-11.367C-19.71,-10.401 -19.884,-10.005 -20.058,-9.609C-20.232,-9.144 -20.397,-9.027 -20.64,-9.027C-20.805,-9.027 -20.919,-9.201 -20.919,-9.552C-20.919,-10.11 -19.779,-15.027 -19.65,-15.492C-19.545,-15.819 -19.326,-16.563 -19.092,-16.563C-18.684,-16.563 -18.102,-16.005 -16.575,-15.888C-14.91,-15.702 -12.744,-15.609 -12.057,-15.609L9.39,-15.609C11.205,-15.609 12.522,-15.702 13.431,-15.888C14.292,-16.005 14.805,-16.167 15.039,-16.167C15.318,-16.167 15.318,-15.819 15.318,-15.492C15.318,-13.779 15.156,-9.831 15.156,-9.201C15.156,-8.688 14.991,-8.445 14.748,-8.445C14.469,-8.445 14.352,-8.631 14.292,-9.423L14.235,-10.062C14.07,-11.775 12.696,-13.092 7.212,-13.197L0,-13.314L0,10.869Z" style="fill:rgb(99,101,106);fill-rule:nonzero;"/>
        </g>
        <g transform="matrix(1,0,0,1,1197.17,748.571)">
            <path d="M0,-9.8C0,-18.71 0,-20.306 -0.117,-22.136C-0.222,-24.08 -0.687,-24.989 -2.562,-25.397C-3.03,-25.502 -3.996,-25.559 -4.509,-25.559C-4.743,-25.559 -4.974,-25.676 -4.974,-25.91C-4.974,-26.258 -4.683,-26.351 -4.053,-26.351C-2.739,-26.351 -1.188,-26.351 0.057,-26.294L2.4,-26.201C2.808,-26.201 14.187,-26.201 15.492,-26.258C16.575,-26.294 17.496,-26.411 17.949,-26.537C18.228,-26.597 18.462,-26.816 18.741,-26.816C18.927,-26.816 18.987,-26.597 18.987,-26.294C18.987,-25.91 18.684,-25.223 18.519,-23.627C18.462,-23.042 18.345,-20.54 18.228,-19.841C18.183,-19.559 18.078,-19.223 17.832,-19.223C17.496,-19.223 17.379,-19.502 17.379,-19.955C17.379,-20.363 17.322,-21.332 17.028,-22.019C16.632,-22.928 16.062,-23.627 12.975,-23.963C12.009,-24.08 5.766,-24.137 5.16,-24.137C4.914,-24.137 4.809,-23.963 4.809,-23.567L4.809,-7.784C4.809,-7.388 4.857,-7.226 5.16,-7.226C5.892,-7.226 12.918,-7.226 14.244,-7.331C15.621,-7.445 16.413,-7.562 16.926,-8.132C17.322,-8.588 17.553,-8.879 17.787,-8.879C17.949,-8.879 18.078,-8.762 18.078,-8.414C18.078,-8.075 17.787,-7.097 17.613,-5.21C17.496,-4.079 17.379,-1.961 17.379,-1.565C17.379,-1.097 17.379,-0.47 16.971,-0.47C16.692,-0.47 16.575,-0.701 16.575,-0.98C16.575,-1.565 16.575,-2.135 16.353,-2.867C16.122,-3.671 15.621,-4.64 13.383,-4.871C11.835,-5.046 6.174,-5.162 5.217,-5.162C4.914,-5.162 4.809,-4.988 4.809,-4.766L4.809,0.277C4.809,2.211 4.752,8.839 4.809,10.051C4.974,13.987 5.823,14.733 11.427,14.733C12.918,14.733 15.435,14.733 16.926,14.104C18.405,13.474 19.092,12.334 19.488,9.991C19.605,9.363 19.731,9.13 20.01,9.13C20.349,9.13 20.349,9.583 20.349,9.991C20.349,10.435 19.908,14.326 19.605,15.535C19.209,17.016 18.741,17.016 16.518,17.016C12.231,17.016 9.096,16.9 6.873,16.84C4.635,16.735 3.261,16.678 2.4,16.678C2.295,16.678 1.326,16.678 0.117,16.735C-1.026,16.735 -2.343,16.84 -3.204,16.84C-3.822,16.84 -4.113,16.735 -4.113,16.387C-4.113,16.224 -3.996,16.036 -3.657,16.036C-3.147,16.036 -2.457,15.921 -1.935,15.817C-0.792,15.595 -0.501,14.326 -0.279,12.67C0,10.282 0,5.752 0,0.277L0,-9.8Z" style="fill:rgb(99,101,106);fill-rule:nonzero;"/>
        </g>
    </g>
</svg>
