<?xml version="1.0" encoding="UTF-8" standalone="no"?>
<!DOCTYPE svg PUBLIC "-//W3C//DTD SVG 1.1//EN" "http://www.w3.org/Graphics/SVG/1.1/DTD/svg11.dtd">
<svg width="100%" height="100%" viewBox="0 0 2850 1255" version="1.1" xmlns="http://www.w3.org/2000/svg" xmlns:xlink="http://www.w3.org/1999/xlink" xml:space="preserve" xmlns:serif="http://www.serif.com/" style="fill-rule:evenodd;clip-rule:evenodd;stroke-linejoin:round;stroke-miterlimit:2;">
    <g transform="matrix(4.16667,0,0,4.16667,0,0)">
        <path d="M0,264.967C0,260.779 0.689,256.565 2.067,252.322C3.444,248.076 5.453,244.222 8.099,240.75C10.744,237.28 13.937,234.442 17.687,232.237C21.433,230.033 25.674,228.931 30.416,228.931L97.285,228.931C99.489,228.931 101.36,229.703 102.905,231.245C104.447,232.79 105.219,234.661 105.219,236.864C105.219,239.067 104.447,240.942 102.905,242.486C101.36,244.029 99.489,244.8 97.285,244.8L33.887,244.8C30.028,244.8 26.915,245.489 24.544,246.867C22.175,248.246 20.303,249.925 18.925,251.907C17.548,253.892 16.614,256.068 16.119,258.441C15.622,260.809 15.374,262.984 15.374,264.967C15.374,266.951 15.622,269.126 16.119,271.496C16.614,273.865 17.548,276.042 18.925,278.026C20.303,280.011 22.175,281.69 24.544,283.067C26.915,284.445 30.028,285.133 33.887,285.133L97.285,285.133C99.489,285.133 101.36,285.905 102.905,287.448C104.447,288.992 105.219,290.862 105.219,293.066C105.219,295.271 104.447,297.146 102.905,298.689C101.36,300.232 99.489,301 97.285,301L28.761,301C24.243,301 20.222,299.902 16.694,297.697C13.166,295.493 10.165,292.656 7.686,289.185C5.206,285.713 3.307,281.83 1.984,277.532C0.661,273.231 0,269.046 0,264.967Z" style="fill:rgb(123,119,116);fill-rule:nonzero;"/>
        <path d="M129.491,271.496C129.988,273.865 130.922,276.042 132.299,278.026C133.677,280.011 135.549,281.69 137.919,283.067C140.289,284.445 143.403,285.133 147.26,285.133L183.547,285.133C187.296,285.133 190.38,284.445 192.804,283.067C195.229,281.69 197.131,280.011 198.508,278.026C199.887,276.042 200.823,273.865 201.319,271.496C201.815,269.126 202.063,266.951 202.063,264.967L202.063,236.864C202.063,234.661 202.832,232.79 204.376,231.245C205.918,229.703 207.793,228.931 209.998,228.931C212.202,228.931 214.074,229.703 215.616,231.245C217.159,232.79 217.932,234.661 217.932,236.864L217.932,264.967C217.932,269.157 217.242,273.37 215.864,277.613C214.486,281.856 212.477,285.713 209.831,289.185C207.186,292.656 203.991,295.493 200.241,297.697C196.495,299.902 192.253,301 187.516,301L141.639,301C137.12,300.782 133.099,299.543 129.571,297.283C126.044,295.022 123.042,292.187 120.563,288.771C118.084,285.354 116.184,281.554 114.861,277.365C113.539,273.176 112.877,269.046 112.877,264.967L112.877,236.864C112.877,234.661 113.648,232.79 115.193,231.245C116.735,229.703 118.606,228.931 120.812,228.931C123.016,228.931 124.889,229.703 126.433,231.245C127.976,232.79 128.748,234.661 128.748,236.864L128.748,264.967C128.748,266.951 128.996,269.126 129.491,271.496Z" style="fill:rgb(123,119,116);fill-rule:nonzero;"/>
        <path d="M241.459,244.8L241.459,257.03L303.7,257.03C305.354,257.03 306.811,256.454 308.079,255.298C309.346,254.141 309.979,252.679 309.979,250.915C309.979,249.262 309.346,247.831 308.079,246.619C306.811,245.407 305.354,244.8 303.7,244.8L241.459,244.8ZM303.039,228.931C306.122,228.931 309.016,229.511 311.717,230.667C314.418,231.822 316.783,233.394 318.825,235.38C320.863,237.362 322.46,239.676 323.62,242.321C324.776,244.967 325.354,247.829 325.354,250.915C325.354,254.001 324.776,256.868 323.62,259.515C322.46,262.158 320.863,264.471 318.825,266.455C316.783,268.438 314.418,270.007 311.717,271.166C309.016,272.322 306.122,272.9 303.039,272.9L241.459,272.9L241.459,293.066C241.459,295.271 240.66,297.146 239.062,298.689C237.464,300.232 235.617,301 233.522,301C231.319,301 229.447,300.232 227.904,298.689C226.362,297.146 225.589,295.271 225.589,293.066L225.589,236.864C225.589,234.661 226.362,232.79 227.904,231.245C229.447,229.703 231.319,228.931 233.522,228.931L303.039,228.931Z" style="fill:rgb(123,119,116);fill-rule:nonzero;"/>
        <path d="M458.324,271.496C458.818,273.865 459.752,276.042 461.131,278.026C462.509,280.011 464.381,281.69 466.752,283.067C469.121,284.445 472.233,285.133 476.094,285.133L512.379,285.133C516.129,285.133 519.211,284.445 521.636,283.067C524.063,281.69 525.963,280.011 527.342,278.026C528.717,276.042 529.654,273.865 530.15,271.496C530.647,269.126 530.898,266.951 530.898,264.967L530.898,236.864C530.898,234.661 531.663,232.79 533.208,231.245C534.75,229.703 536.625,228.931 538.829,228.931C541.034,228.931 542.905,229.703 544.447,231.245C545.992,232.79 546.764,234.661 546.764,236.864L546.764,264.967C546.764,269.157 546.077,273.37 544.696,277.613C543.317,281.856 541.309,285.713 538.663,289.185C536.018,292.656 532.822,295.493 529.073,297.697C525.326,299.902 521.084,301 516.348,301L470.473,301C465.952,300.782 461.932,299.543 458.403,297.283C454.876,295.022 451.874,292.187 449.397,288.771C446.916,285.354 445.015,281.554 443.692,277.365C442.372,273.176 441.709,269.046 441.709,264.967L441.709,236.864C441.709,234.661 442.479,232.79 444.025,231.245C445.566,229.703 447.438,228.931 449.643,228.931C451.848,228.931 453.723,229.703 455.265,231.245C456.809,232.79 457.58,234.661 457.58,236.864L457.58,264.967C457.58,266.951 457.828,269.126 458.324,271.496Z" style="fill:rgb(123,119,116);fill-rule:nonzero;"/>
        <path d="M353.011,257.03C351.53,257.03 350.117,257.176 348.756,257.454L348.756,244.8L412.402,244.8C414.056,244.8 415.513,245.407 416.78,246.619C418.047,247.831 418.682,249.262 418.682,250.915C418.682,252.679 418.047,254.141 416.78,255.298C415.513,256.454 414.056,257.03 412.402,257.03L353.011,257.03ZM429.591,285.96C426.396,283.425 423.257,281.085 420.171,278.937C417.084,276.787 414.053,274.775 411.08,272.9L411.739,272.9C414.824,272.9 417.717,272.322 420.418,271.166C423.119,270.007 425.484,268.438 427.525,266.455C429.564,264.471 431.162,262.158 432.321,259.515C433.478,256.868 434.056,254.001 434.056,250.915C434.056,247.829 433.478,244.967 432.321,242.321C431.162,239.676 429.564,237.362 427.525,235.38C425.484,233.394 423.119,231.822 420.418,230.667C417.717,229.511 414.824,228.931 411.739,228.931L340.941,228.931C340.918,228.931 340.9,228.935 340.879,228.935C340.859,228.935 340.842,228.931 340.818,228.931C338.614,228.931 336.742,229.703 335.201,231.245C333.656,232.79 332.885,234.661 332.885,236.864L332.885,285.041L333.008,284.942L333.008,293.066C333.008,295.271 333.778,297.146 335.323,298.689C336.865,300.232 338.737,301 340.941,301C343.035,301 344.883,300.232 346.48,298.689C348.079,297.146 348.879,295.271 348.879,293.066L348.879,279.016C348.879,277.365 349.372,275.987 350.363,274.886C351.354,273.782 352.57,273.122 354,272.9L358.678,272.9C364.626,272.9 370.355,273.617 375.869,275.05C381.38,276.483 386.696,278.411 391.821,280.834C396.943,283.261 401.876,286.015 406.615,289.101C411.354,292.187 415.979,295.383 420.5,298.687C422.375,300.229 424.247,301 426.118,301C428.323,301 430.197,300.232 431.739,298.689C433.284,297.146 434.056,295.271 434.056,293.066C434.056,291.525 433.614,290.175 432.733,289.017C431.851,287.859 430.806,286.842 429.591,285.96Z" style="fill:rgb(123,119,116);fill-rule:nonzero;"/>
        <path d="M683.676,293.066C683.676,295.271 682.902,297.146 681.36,298.689C679.816,300.232 677.943,301 675.739,301C673.534,301 671.663,300.232 670.121,298.689C668.576,297.146 667.806,295.271 667.806,293.066L667.806,257.03C667.806,252.516 667.527,250.255 666.979,250.255C666.538,250.255 664.993,251.742 662.351,254.72L631.114,296.043C629.68,297.697 627.916,298.935 625.822,299.762C623.729,300.589 621.472,301 619.048,301C616.621,301 614.364,300.589 612.271,299.762C610.177,298.935 608.413,297.697 606.982,296.043L575.746,254.72C573.211,251.742 571.669,250.255 571.117,250.255C570.568,250.255 570.291,252.516 570.291,257.03L570.291,293.066C570.291,295.271 569.52,297.146 567.979,298.689C566.434,300.232 564.559,301 562.354,301C560.149,301 558.28,300.232 556.735,298.689C555.193,297.146 554.42,295.271 554.42,293.066L554.42,244.8C554.42,240.391 555.688,236.646 558.223,233.561C560.757,230.474 564.229,228.931 568.639,228.931C571.28,228.931 573.651,229.592 575.746,230.915C577.839,232.237 579.77,233.835 581.533,235.706L614.42,279.016C614.972,279.567 615.66,280.145 616.487,280.753C617.313,281.358 618.166,281.661 619.048,281.661C619.93,281.661 620.783,281.358 621.608,280.753C622.436,280.145 623.125,279.567 623.677,279.016L656.399,235.706L656.563,235.706C658.107,233.616 659.979,231.962 662.184,230.748C664.389,229.536 666.813,228.931 669.458,228.931C673.865,228.931 677.336,230.474 679.871,233.561C682.405,236.646 683.676,240.391 683.676,244.8L683.676,293.066Z" style="fill:rgb(123,119,116);fill-rule:nonzero;"/>
        <path d="M351.254,107.681C355.236,103.7 351.254,99.648 351.254,99.648L270.1,18.494L263.465,25.199C263.465,25.199 321.736,83.477 329.766,91.507C337.09,98.831 329.766,106.099 329.766,106.099L262.671,173.143L274.258,184.706C274.258,184.706 346.957,111.978 351.254,107.681ZM322.188,106.323C324.361,104.152 321.734,101.458 321.734,101.458L254.436,34.163L247.252,41.341C247.252,41.341 291.986,86.079 297.981,92.071C305.146,99.24 297.981,105.529 297.981,105.529L246.458,156.977L259.002,169.499C259.002,169.499 319.909,108.601 322.188,106.323ZM299.196,2.765C290.406,-2.323 284.125,4.471 284.125,4.471L279.32,9.277C279.32,9.277 353.404,83.588 361.549,91.732C369.105,99.289 361.041,106.606 361.041,106.606L278.583,189.065L284.575,194.988C289.566,199.346 293.57,198.815 299.622,195.567C304.674,192.858 438.512,119.34 449.063,108.978C449.063,108.978 453.809,104.455 453.809,99.463C453.809,94.471 451.048,91.91 449.063,90.642C447.079,89.372 307.795,7.742 299.196,2.765Z" style="fill:rgb(0,71,127);fill-rule:nonzero;"/>
    </g>
</svg>
