<?xml version="1.0" encoding="UTF-8"?>
<svg xmlns="http://www.w3.org/2000/svg" xmlns:xlink="http://www.w3.org/1999/xlink" width="300px" height="px" viewBox="0 0 300 200" version="1.1">
<g id="surface1">
<path style=" stroke:none;fill-rule:evenodd;fill:rgb(96.862745%,63.921569%,3.921569%);fill-opacity:1;" d="M 34.617188 100 L 91.003906 100 L 91.003906 156.390625 L 34.617188 156.390625 Z M 34.617188 100 "/>
<path style=" stroke:none;fill-rule:evenodd;fill:rgb(0%,36.862745%,76.862745%);fill-opacity:1;" d="M 91.003906 43.609375 L 147.390625 43.609375 L 147.390625 99.996094 L 91.003906 99.996094 Z M 91.003906 43.609375 "/>
<path style=" stroke:none;fill-rule:nonzero;fill:rgb(13.72549%,12.156863%,12.54902%);fill-opacity:1;" d="M 87.054688 43.609375 L 91.003906 43.609375 L 91.003906 99.996094 L 34.617188 99.996094 L 34.617188 96.054688 L 87.054688 96.054688 Z M 91.003906 100 L 147.394531 100 L 147.394531 103.945312 L 94.953125 103.945312 L 94.953125 156.386719 L 91.003906 156.386719 Z M 91.003906 100 "/>
<path style=" stroke:none;fill-rule:evenodd;fill:rgb(38.823529%,39.215686%,40%);fill-opacity:1;" d="M 129.890625 120.027344 L 127.390625 120.027344 C 124.695312 125.011719 121.972656 130.027344 119.25 135.3125 C 116.800781 130.027344 114.324219 125.011719 111.847656 120.027344 L 108.988281 120.027344 L 108.988281 138.796875 L 111.191406 138.796875 L 111.191406 123.515625 L 111.246094 123.515625 C 111.988281 125.976562 115.976562 134 118.363281 138.796875 L 119.441406 138.796875 C 122.027344 134 126.398438 125.714844 127.167969 123.515625 L 127.222656 123.515625 L 127.222656 138.796875 L 129.890625 138.796875 Z M 143.222656 137.566406 C 138.25 137.566406 136.542969 133.085938 136.542969 129.417969 C 136.542969 125.898438 138.46875 121.90625 143.222656 121.90625 C 147.984375 121.90625 149.90625 125.898438 149.90625 129.417969 C 149.90625 133.085938 148.203125 137.566406 143.222656 137.566406 M 143.222656 139.441406 C 149.167969 139.441406 152.851562 135.015625 152.851562 129.417969 C 152.851562 124.15625 148.785156 120.027344 143.222656 120.027344 C 137.667969 120.027344 133.601562 124.15625 133.601562 129.417969 C 133.601562 135.015625 137.28125 139.441406 143.222656 139.441406 M 201.988281 120.035156 L 190.160156 120.027344 L 190.160156 138.808594 L 203.179688 138.808594 L 203.179688 136.929688 L 192.851562 136.921875 L 192.851562 130.886719 L 201.847656 130.886719 L 201.847656 129.011719 L 192.851562 129.011719 L 192.851562 121.914062 L 201.988281 121.914062 Z M 223.164062 120.035156 L 220.953125 120.035156 L 220.953125 135 L 220.894531 135 C 219.589844 133.121094 212.4375 124.914062 208.160156 120.035156 L 206.164062 120.035156 L 206.164062 138.808594 L 208.386719 138.808594 L 208.386719 123.871094 L 208.4375 123.871094 C 209.605469 125.503906 216.84375 133.925781 221.058594 138.808594 L 223.164062 138.808594 Z M 240.542969 130.546875 L 240.542969 136.898438 C 239.464844 137.410156 238.238281 137.574219 236.605469 137.574219 C 232.390625 137.574219 229.035156 134.386719 229.035156 129.632812 C 229.035156 125.238281 231.863281 121.910156 236.910156 121.910156 C 239.042969 121.910156 240.820312 122.636719 241.984375 123.414062 L 243.09375 121.859375 C 241.929688 120.921875 239.710938 120.035156 236.882812 120.035156 C 229.890625 120.035156 226.066406 124.941406 226.066406 129.691406 C 226.066406 134.839844 229.613281 139.449219 236.523438 139.449219 C 238.988281 139.449219 241.347656 138.832031 243.234375 138.191406 L 243.234375 130.546875 Z M 250.21875 120.035156 L 247.527344 120.035156 L 247.527344 138.808594 L 250.21875 138.808594 Z M 254.625 138.808594 L 265.382812 138.808594 L 265.382812 136.929688 L 257.3125 136.929688 L 257.3125 120.035156 L 254.625 120.035156 Z M 162.367188 138.796875 L 162.367188 121.90625 L 168.660156 121.902344 L 168.660156 120.027344 L 153.078125 120.027344 L 153.078125 121.90625 L 159.558594 121.90625 L 159.558594 138.796875 Z M 162.367188 138.796875 "/>
<path style=" stroke:none;fill-rule:nonzero;fill:rgb(38.823529%,39.215686%,40%);fill-opacity:1;" d="M 175.171875 120.027344 L 167.503906 138.796875 L 170.371094 138.796875 L 173.148438 130.886719 L 173.8125 129.007812 L 175.785156 123.390625 L 181.628906 138.796875 L 184.871094 138.796875 L 177.316406 120.027344 Z M 175.171875 120.027344 "/>
<path style=" stroke:none;fill-rule:evenodd;fill:rgb(38.823529%,39.215686%,40%);fill-opacity:1;" d="M 174.691406 130.886719 L 188.5 130.886719 L 188.5 129.011719 L 175.363281 129.011719 Z M 174.691406 130.886719 "/>
</g>
</svg>
