<?xml version="1.0" encoding="UTF-8" standalone="no"?>
<!DOCTYPE svg PUBLIC "-//W3C//DTD SVG 1.1//EN" "http://www.w3.org/Graphics/SVG/1.1/DTD/svg11.dtd">
<svg width="100%" height="100%" viewBox="0 0 3300 2550" version="1.1" xmlns="http://www.w3.org/2000/svg" xmlns:xlink="http://www.w3.org/1999/xlink" xml:space="preserve" xmlns:serif="http://www.serif.com/" style="fill-rule:evenodd;clip-rule:evenodd;stroke-linejoin:round;stroke-miterlimit:2;">
    <g id="Layer-1" serif:id="Layer 1" transform="matrix(4.16667,0,0,4.16667,0,0)">
        <g transform="matrix(-1,0,0,1,203.064,-261.901)">
            <rect x="30" y="434.709" width="143.064" height="4.483" style="fill:rgb(198,60,150);"/>
        </g>
        <g transform="matrix(-1,0,0,1,203.064,-72.296)">
            <rect x="30" y="335.329" width="143.064" height="13.638" style="fill:rgb(198,60,150);"/>
        </g>
        <g transform="matrix(-1,0,0,1,203.064,-239.013)">
            <rect x="30" y="422.424" width="143.064" height="6.165" style="fill:rgb(0,166,80);"/>
        </g>
        <g transform="matrix(-1,0,0,1,203.064,-12.017)">
            <rect x="30" y="310.071" width="143.064" height="3.875" style="fill:rgb(0,166,80);"/>
        </g>
        <g transform="matrix(-1,0,0,1,203.064,-138.423)">
            <rect x="30" y="361.638" width="143.064" height="27.147" style="fill:rgb(0,166,80);"/>
        </g>
        <g transform="matrix(-1,0,0,1,203.064,-201.625)">
            <rect x="30" y="399.916" width="143.064" height="13.793" style="fill:rgb(0,102,179);"/>
        </g>
        <g transform="matrix(-1,0,0,1,203.064,-35.099)">
            <rect x="30" y="320.181" width="143.064" height="6.737" style="fill:rgb(0,102,179);"/>
        </g>
        <g transform="matrix(1,0,0,1,0,-36.213)">
            <path d="M308.626,259.633L209.179,259.633L209.179,286.465L244.024,286.465L244.024,388.58L273.438,388.58L273.438,286.465L308.626,286.465L308.626,259.633Z" style="fill:rgb(118,120,123);fill-rule:nonzero;"/>
        </g>
        <g transform="matrix(1,0,0,1,0,-3.753)">
            <path d="M498.295,259.121C486.651,259.121 477.222,263.94 470.385,273.048C463.913,263.406 455.412,259.121 443.029,259.121C432.125,259.121 423.064,263.584 415.859,272.337L415.859,261.798L390.904,261.798L390.904,356.632L416.781,356.632L416.781,299.303C416.781,287.874 423.431,281.088 433.418,281.088C442.285,281.088 447.646,286.269 447.646,295.736L447.646,356.632L473.34,356.632L473.34,299.13C473.34,287.874 479.995,281.088 489.977,281.088C499.033,281.088 504.577,286.269 504.577,295.554L504.577,356.632L530.454,356.632L530.454,290.375C530.454,270.906 517.887,259.121 498.295,259.121" style="fill:rgb(118,120,123);fill-rule:nonzero;"/>
        </g>
        <g transform="matrix(1,0,0,1,0,-2.125)">
            <path d="M349.194,316.795C349.194,330.187 340.801,338.401 327.047,338.401C319.368,338.401 314.548,333.938 314.548,326.976C314.548,319.649 318.476,316.616 326.512,314.299C331.338,312.866 339.552,312.332 349.194,307.866L349.194,316.795ZM373.487,341.236L373.487,283.039C373.487,265.895 359.196,256.249 332.41,256.249C309.641,256.249 295.704,266.62 293.875,283.601L318.191,283.601C320.004,278.78 325.121,276.074 333.301,276.074C344.196,276.074 348.838,278.934 348.838,286.791C348.838,295.902 342.05,294.47 322.406,297.508C300.258,300.901 290.256,309.116 290.256,327.691C290.256,347.155 300.793,357.876 319.011,357.876C332.767,357.876 343.303,352.517 349.551,342.692C349.735,347.155 350.62,351.09 352.409,354.484L378.842,354.484L378.842,354.453C374.557,352.303 373.487,348.197 373.487,341.236" style="fill:rgb(118,120,123);fill-rule:nonzero;"/>
        </g>
        <g transform="matrix(1,0,0,1,0,-2.125)">
            <path d="M702.217,316.795C702.217,330.187 693.818,338.401 680.07,338.401C672.384,338.401 667.563,333.938 667.563,326.976C667.563,319.649 671.499,316.616 679.528,314.299C684.354,312.866 692.569,312.332 702.217,307.866L702.217,316.795ZM726.503,341.143L726.503,283.039C726.503,265.895 712.213,256.249 685.425,256.249C662.661,256.249 648.72,266.62 646.89,283.601L671.207,283.601C673.021,278.78 678.143,276.074 686.318,276.074C697.21,276.074 701.86,278.934 701.86,286.791C701.86,295.902 695.072,294.47 675.422,297.508C653.275,300.901 643.278,309.116 643.278,327.691C643.278,347.155 653.815,357.876 672.027,357.876C685.786,357.876 696.32,352.517 702.572,342.692C702.751,347.155 703.642,351.09 705.426,354.484L731.863,354.484L731.863,354.363C727.574,352.213 726.503,348.104 726.503,341.143" style="fill:rgb(118,120,123);fill-rule:nonzero;"/>
        </g>
        <g transform="matrix(1,0,0,1,0,-102.585)">
            <path d="M588.689,357.295L588.69,357.29C588.655,357.292 588.662,357.293 588.689,357.295" style="fill:rgb(118,120,123);fill-rule:nonzero;"/>
        </g>
        <g transform="matrix(1,0,0,1,0,0.901)">
            <path d="M598.449,293.757C580.191,289.473 572.24,288.76 572.24,282.149C572.24,276.389 576.766,273.545 586.086,273.421C603.238,273.702 611.958,284.243 611.958,284.243L630.007,268.155C608.478,253.804 589.351,253.843 588.689,253.809L588.681,253.867C587.962,253.829 587.262,253.749 586.519,253.749C561.937,253.749 547.117,266.252 547.117,285.366C547.117,301.436 557.778,308.224 580.373,313.944C597.363,318.224 605.678,317.692 605.678,325.907C605.678,331.799 600.258,335.375 589.954,335.375C588.705,335.375 587.57,335.293 586.442,335.203L586.438,335.213C569.473,333.816 556.484,320.578 556.484,320.578L538.659,336.669C561.157,357.35 587.141,355.248 588.14,355.158C616.529,354.73 631.527,343.183 631.527,322.157C631.527,305.01 620.682,298.94 598.449,293.757" style="fill:rgb(118,120,123);fill-rule:nonzero;"/>
        </g>
    </g>
</svg>
